<svg xmlns="http://www.w3.org/2000/svg" xmlns:xlink="http://www.w3.org/1999/xlink" viewBox="0 0 144.54 142.83"><defs><linearGradient id="linear-gradient" x1="14.66" y1="81.61" x2="32.72" y2="74.65" gradientUnits="userSpaceOnUse"><stop offset=".05"/><stop offset=".28" stop-color="#4c4c4c"/><stop offset=".53" stop-color="#989898"/><stop offset=".74" stop-color="#d0d0d0"/><stop offset=".89" stop-color="#f2f2f2"/><stop offset=".97" stop-color="#fff"/></linearGradient><linearGradient id="linear-gradient-2" x1="128.3" y1="78.33" x2="113.29" y2="75.72" xlink:href="#linear-gradient"/><linearGradient id="linear-gradient-3" x1="14.66" y1="81.61" x2="32.72" y2="74.65" gradientUnits="userSpaceOnUse"><stop offset=".05" stop-color="#ccd8d4"/><stop offset=".38" stop-color="#aca48b"/><stop offset=".66" stop-color="#947d53"/><stop offset=".86" stop-color="#856431"/><stop offset=".97" stop-color="#7f5b24"/></linearGradient><linearGradient id="linear-gradient-4" x1="128.3" y1="78.33" x2="113.29" y2="75.72" xlink:href="#linear-gradient-3"/><linearGradient id="linear-gradient-5" x1="80.01" y1="150.7" x2="85.29" y2="164.07" gradientUnits="userSpaceOnUse"><stop offset="0" stop-color="#fff"/><stop offset="1" stop-color="#c93a27"/></linearGradient><linearGradient id="linear-gradient-6" x1="97.86" y1="143.67" x2="103.13" y2="157.03" xlink:href="#linear-gradient-5"/><filter id="luminosity-noclip" x="13.16" y="-8013.68" width="24.41" height="32766" filterUnits="userSpaceOnUse" color-interpolation-filters="sRGB"><feFlood flood-color="#fff" result="bg"/><feBlend in="SourceGraphic" in2="bg"/></filter><filter id="luminosity-noclip-2" x="107.05" y="-8013.68" width="25.64" height="32766" filterUnits="userSpaceOnUse" color-interpolation-filters="sRGB"><feFlood flood-color="#fff" result="bg"/><feBlend in="SourceGraphic" in2="bg"/></filter><filter id="luminosity-noclip-3" x="13.16" y="60.95" width="24.41" height="32.4" filterUnits="userSpaceOnUse" color-interpolation-filters="sRGB"><feFlood flood-color="#fff" result="bg"/><feBlend in="SourceGraphic" in2="bg"/></filter><filter id="luminosity-noclip-4" x="107.05" y="60.95" width="25.64" height="32.18" filterUnits="userSpaceOnUse" color-interpolation-filters="sRGB"><feFlood flood-color="#fff" result="bg"/><feBlend in="SourceGraphic" in2="bg"/></filter><mask id="mask-3" x="13.16" y="60.95" width="24.41" height="32.4" maskUnits="userSpaceOnUse"><g mask="url(#mask)" filter="url(#luminosity-noclip-3)"><path d="M37.19 89.33a10.81 10.81 0 01-.41-1.94c-.21-1.4-.45-2.8-.67-4.2s-.45-2.59-.68-3.89c-.14-.78.14-1.94-.67-2.4-1.1-.64-1.62-2-2.12-3.11a27.82 27.82 0 01-1.39-4.16 22.81 22.81 0 00-2.47-6.56c-1.14-1.73-3.1-2.15-5-2.12a11.28 11.28 0 00-1.16.07c-.51.07-1-.05-1.51 0a2.76 2.76 0 00-1 .48 1.91 1.91 0 01-.32.16A5 5 0 0019 62c-.1.07-.08.28.06.2l.19-.09a10.71 10.71 0 01-3.1 1.26 9.52 9.52 0 01-1.84.28 5.85 5.85 0 00-1.15.25c2.18 9.9 4.89 19.67 7.57 29.45 1.24-.28 2.48-.53 3.72-.8a50.81 50.81 0 017.86-1c1.51-.07 3-.12 4.53-.27.45-.08.75-.15.73-.26a12.07 12.07 0 00-.38-1.69z" style="mix-blend-mode:multiply" fill="url(#linear-gradient)"/></g></mask><mask id="mask-4" x="107.05" y="60.95" width="25.64" height="32.18" maskUnits="userSpaceOnUse"><g mask="url(#mask-2)" filter="url(#luminosity-noclip-4)"><path d="M122.85 93.13c.79-3 1.63-6 2.59-9 2.14-6.63 4.67-13.1 7.25-19.56-.4.26-.6 1.29-.83 1.58a.59.59 0 00-.13.2 5.46 5.46 0 010-.57 13.65 13.65 0 01.34-1.51.16.16 0 00-.12-.2 9.77 9.77 0 00-1.68-.4 9.52 9.52 0 01-1.84-.28 10.82 10.82 0 01-3.1-1.26l.19.09c.14.08.16-.13.06-.2a5 5 0 00-.74-.34 1.68 1.68 0 01-.33-.16 2.61 2.61 0 00-1-.48c-.52-.05-1 .07-1.51 0a11.28 11.28 0 00-1.16-.07c-1.93 0-3.89.39-5 2.12a22.53 22.53 0 00-2.47 6.56 29 29 0 01-1.37 4.14c-.5 1.13-1 2.47-2.13 3.11-.81.46-.52 1.62-.66 2.4-.24 1.3-.49 2.59-.69 3.89s-.46 2.8-.66 4.2a11.77 11.77 0 01-.42 1.94 13.73 13.73 0 00-.38 1.66c0 .11.29.18.73.26 1.5.15 3 .2 4.53.27a50.81 50.81 0 017.86 1z" style="mix-blend-mode:multiply" fill="url(#linear-gradient-2)"/></g></mask><style>.cls-6{fill:#bf4027}.cls-10{fill:#931a1d}.cls-11{fill:#302b29}.cls-15{fill:#c93a27}.cls-17{fill:#9b1e1f}.cls-18{fill:#edbc64}.cls-22{opacity:.6}.cls-20,.cls-22{fill:#ffdc83}</style></defs><g style="isolation:isolate"><g id="Layer_2"><g id="Layer_1-2"><path class="cls-6" d="M9.1 93.18c-.15.64.38 1.74.5 2.33a5 5 0 00.4 1.69c.88-.43 1.71-.94 2.62-1.3s1.58-.62 2.38-.9a2.09 2.09 0 000-.25l.12.2 1.31-.46.22-.06v-.08a20.85 20.85 0 01-.47-2.35 4.56 4.56 0 010-.74c.26.63 1.43 2.74 1.82 2.74h.26c2.05-.56 4.15-1 6.23-1.41a50.81 50.81 0 017.86-1c1.51-.07 3-.12 4.53-.27.45-.08.75-.15.73-.26a12.07 12.07 0 00-.38-1.66 10.81 10.81 0 01-.41-1.94c-.21-1.4-.45-2.8-.67-4.2s-.45-2.59-.68-3.89c-.14-.78.14-1.94-.67-2.4-1.1-.64-1.62-2-2.12-3.11a27.82 27.82 0 01-1.39-4.16 22.81 22.81 0 00-2.47-6.56c-1.14-1.73-3.1-2.15-5-2.12a11.28 11.28 0 00-1.16.07c-.51.07-1-.05-1.51 0a2.76 2.76 0 00-1 .48 1.91 1.91 0 01-.32.16A5 5 0 0019 62c-.1.07-.08.28.06.2l.19-.09a10.71 10.71 0 01-3.1 1.26 9.52 9.52 0 01-1.84.28 9.45 9.45 0 00-1.67.4.16.16 0 00-.13.2 11.71 11.71 0 01.34 1.51 5.46 5.46 0 010 .57.59.59 0 00-.13-.2c-.26-.32-.48-1.6-1-1.64a.18.18 0 00-.17.13c-.15.4-.82.87-1.14 1.11a8.41 8.41 0 01-1.77 1c-1.12.46-2.26.88-3.4 1.29-.63.22-1.25.38-1.89.54-.39.09-.83-.07-1.21.09a5.3 5.3 0 00-2 1.64c-.05 0-.1.23 0 .22a3.89 3.89 0 011.49.15c-.38.6-.16 1.51-.16 2.19 0 .37.51.8.65 1.13s.3.68.45 1a4.69 4.69 0 01.18 1.23.11.11 0 00.14.08c.37-.09.71-.29 1.09-.37.56-.11 1.15-.11 1.72-.2a7.33 7.33 0 00-1.19.71 5.22 5.22 0 00-1 .72c-.37.4.47 1.13.63 1.42a11.18 11.18 0 01.95 3.65A9.62 9.62 0 006.23 85a4.22 4.22 0 01.65 1.54c0 .16 0 .56.07.71a.25.25 0 00.3.08 5.11 5.11 0 01.95-.25 2 2 0 00-.19.22c-.21.26-.58.47-.7.79s.43.88.61 1.14a2.82 2.82 0 01.34 2.2c-.12.34-.3.56 0 .82s.98.33.84.93z"/><path d="M14.31 63.66h-.25a1.19 1.19 0 00-.26 0 4.43 4.43 0 00-.49.13l-.49.14a1.35 1.35 0 00-.24.08.15.15 0 00-.06.1.25.25 0 000 .12l.13.5a1.82 1.82 0 01.07.25v.25l.05.25v.25a4.57 4.57 0 010 .52 2 2 0 00-.14-.22.8.8 0 01-.13-.24 5.38 5.38 0 01-.2-.51 4.23 4.23 0 00-.23-.48c-.09-.15-.2-.31-.35-.34h-.05a.23.23 0 00-.07.07.92.92 0 01-.13.24 3 3 0 01-.38.41q-.42.34-.87.66c-.15.1-.31.19-.47.28a4.45 4.45 0 01-.48.26 10.64 10.64 0 01-1 .42l-2 .77-1 .39-1 .32-.53.14a3 3 0 01-.55.11 2.06 2.06 0 00-1 .1 4.05 4.05 0 00-.91.56 7.56 7.56 0 00-.84.81l-.17.21-.05.05v.08h.37a4.06 4.06 0 011.1.16.09.09 0 01.06.11 2.56 2.56 0 00-.11.24c0 .08 0 .16-.07.25s0 .18 0 .27V72.97a1.35 1.35 0 00.14.22c.1.15.23.29.34.45a5 5 0 01.25.53l.22.51.06.13v.07a2.13 2.13 0 01.07.27V76h.06a4 4 0 00.77 0 3.31 3.31 0 01.52-.2l.56-.08h.56l.55-.07v.2h-.18l-.12.15-.37.25-.39.26-.39.24a3.57 3.57 0 00-.38.25l-.16.15s-.07 0-.07.07a.15.15 0 000 .08.45.45 0 00.07.36 2.12 2.12 0 00.24.37l.3.36a2.39 2.39 0 01.13.21l.1.21a3.25 3.25 0 01.18.43c.06.15.1.3.15.45.08.3.15.61.2.91s.1.62.15.92.05.3.07.46v.45a6.78 6.78 0 00.28.87c.11.28.24.56.37.84l.45.86c.14.27.31.53.44.82a2.07 2.07 0 01.26.88 1.2 1.2 0 000 .43.15.15 0 000 .07h.26l.44-.14.49-.06a.05.05 0 01.07.05c-.14.14-.26.3-.42.44a2.3 2.3 0 00-.4.43 1.34 1.34 0 01-.06.12.64.64 0 010 .07v.06a.72.72 0 00.09.27 3.19 3.19 0 00.35.47 1.18 1.18 0 01.18.29 2.34 2.34 0 01.15.27 3.12 3.12 0 01.19.59 4.11 4.11 0 01.08.6v.31a1.45 1.45 0 01-.05.3c0 .21-.16.38-.2.57a.33.33 0 00.07.26.94.94 0 00.1.1l.13.09c.16.11.35.18.51.31a.5.5 0 01.17.26.65.65 0 010 .31 1.52 1.52 0 000 .6c0 .2.08.39.13.59.12.38.26.76.35 1.15-.09-.39-.25-.76-.36-1.15a3.92 3.92 0 01-.15-.59 1.79 1.79 0 010-.61.57.57 0 000-.29.41.41 0 00-.16-.23c-.15-.12-.34-.2-.51-.31a.57.57 0 01-.13-.08l-.12-.11a.42.42 0 01-.09-.31c0-.21.16-.38.19-.57a1.57 1.57 0 00.05-.3 2.8 2.8 0 000-.29 2.33 2.33 0 00-.08-.59 3.07 3.07 0 00-.27-.56 2.2 2.2 0 00-.15-.26c0-.08-.12-.16-.18-.24a3.7 3.7 0 01-.37-.49.76.76 0 01-.1-.31v-.09a.14.14 0 010-.07.77.77 0 01.07-.16 2 2 0 01.42-.45c.14-.13.27-.29.41-.44l.06.1a5.28 5.28 0 00-.89.23h-.12a.38.38 0 01-.15 0l-.12-.07a.36.36 0 01-.08-.12 1.18 1.18 0 010-.49 1.28 1.28 0 00-.06-.43 1.69 1.69 0 00-.15-.43c-.12-.27-.29-.53-.44-.81s-.29-.54-.43-.82a8.13 8.13 0 01-.38-.85 5.78 5.78 0 01-.29-.89l-.05-.2V82c0-.15-.06-.3-.08-.45-.05-.31-.1-.61-.16-.92a6.74 6.74 0 00-.2-.89 3.09 3.09 0 00-.14-.43 3.79 3.79 0 00-.18-.42l-.1-.21A1.88 1.88 0 004 78.5l-.29-.35a3.51 3.51 0 01-.27-.4.64.64 0 01-.07-.53 2 2 0 01.72-.63l.4-.25.38-.26.39-.25.21-.12h.24a.11.11 0 01.13.07.1.1 0 01-.07.13 5 5 0 01-.56.07l-.55.05c-.18 0-.37 0-.56.08a3.72 3.72 0 00-.51.16 3.75 3.75 0 01-.53.19h-.07a.57.57 0 01-.13 0h-.07l-.06-.07v-.56a2 2 0 000-.26.9.9 0 00-.07-.27v-.2l-.22-.51c-.08-.17-.15-.36-.23-.5l-.33-.44c-.06-.08-.11-.17-.16-.25l-.29-.4a.7.7 0 010-.14V71.44a2.85 2.85 0 010-.29c0-.1.05-.19.07-.29l.13-.27.06.14a3.7 3.7 0 00-1-.16h-.5a.28.28 0 01-.11 0 .15.15 0 01-.08-.14.31.31 0 010-.19v-.06l.18-.2a6.41 6.41 0 01.8-.76c.14-.11.3-.21.45-.31s.33-.19.49-.26a2.15 2.15 0 01.27-.1H3.01a2.51 2.51 0 00.52-.1l.52-.13 1-.32 1-.37 2-.77a9.55 9.55 0 001-.41 4.23 4.23 0 00.47-.25 4.34 4.34 0 00.46-.28 9.13 9.13 0 00.86-.64 3.3 3.3 0 00.37-.38 1.71 1.71 0 00.13-.23.28.28 0 01.12-.12.11.11 0 01.07 0 .13.13 0 01.09 0 .58.58 0 01.25.15 2 2 0 01.16.24c.08.16.15.33.22.49s.12.34.19.51.07.16.12.24a1 1 0 01.15.23h-.06a4.36 4.36 0 000-.51v-.75l-.06-.25-.13-.5a.27.27 0 010-.13.24.24 0 01.07-.12 1.21 1.21 0 01.25-.08l.49-.14.5-.12a1.17 1.17 0 01.26 0z" fill="#d74227"/><g mask="url(#mask-3)"><path d="M37.19 89.33a10.81 10.81 0 01-.41-1.94c-.21-1.4-.45-2.8-.67-4.2s-.45-2.59-.68-3.89c-.14-.78.14-1.94-.67-2.4-1.1-.64-1.62-2-2.12-3.11a27.82 27.82 0 01-1.39-4.16 22.81 22.81 0 00-2.47-6.56c-1.14-1.73-3.1-2.15-5-2.12a11.28 11.28 0 00-1.16.07c-.51.07-1-.05-1.51 0a2.76 2.76 0 00-1 .48 1.91 1.91 0 01-.32.16A5 5 0 0019 62c-.1.07-.08.28.06.2l.19-.09a10.71 10.71 0 01-3.1 1.26 9.52 9.52 0 01-1.84.28 5.85 5.85 0 00-1.15.25c2.18 9.9 4.89 19.67 7.57 29.45 1.24-.28 2.48-.53 3.72-.8a50.81 50.81 0 017.86-1c1.51-.07 3-.12 4.53-.27.45-.08.75-.15.73-.26a12.07 12.07 0 00-.38-1.69z" style="mix-blend-mode:multiply" fill="url(#linear-gradient-3)" opacity=".7"/></g><path class="cls-10" d="M25.74 86.35l-.94 1.59s-.28.36 1.71.63 9.78 1.11 11.07 2.43L36 81.92z"/><path class="cls-11" d="M25.24 88.31A53 53 0 0134.1 85c.78-.2 1.57-.37 2.36-.53L36 81.92l-10.26 4.43-.94 1.59s-.13.17.44.37z"/><path class="cls-6" d="M135.53 93.18c.15.64-.39 1.74-.51 2.33a4.81 4.81 0 01-.4 1.69c-.87-.43-1.71-.94-2.61-1.3s-1.59-.62-2.38-.91a2.11 2.11 0 010-.25 2.12 2.12 0 01-.12.2l-1.31-.46-.21-.06a.11.11 0 010-.08 20.82 20.82 0 00.48-2.35 4.56 4.56 0 000-.74c-.25.64-1.42 2.79-1.77 2.75h-.25c-2.06-.56-4.16-1-6.24-1.41a50.81 50.81 0 00-7.86-1c-1.51-.07-3-.12-4.53-.27-.44-.08-.74-.15-.73-.26a13.73 13.73 0 01.38-1.66 11.77 11.77 0 00.42-1.94c.2-1.4.45-2.8.66-4.2s.45-2.59.69-3.89c.14-.78-.15-1.94.66-2.4 1.1-.64 1.63-2 2.13-3.11a29 29 0 001.39-4.16 22.53 22.53 0 012.47-6.56c1.13-1.73 3.09-2.15 5-2.12A11.28 11.28 0 01122 61c.51.07 1-.05 1.51 0a2.61 2.61 0 011 .48 1.68 1.68 0 00.33.16 5 5 0 01.74.34c.1.07.08.28-.06.2l-.19-.09a10.82 10.82 0 003.1 1.26 9.52 9.52 0 001.84.28 9.77 9.77 0 011.68.4.16.16 0 01.12.2 13.65 13.65 0 00-.34 1.51 5.46 5.46 0 000 .57.59.59 0 01.13-.2c.26-.32.48-1.6 1-1.64a.21.21 0 01.17.13c.14.4.81.87 1.13 1.11a8.41 8.41 0 001.77 1c1.13.46 2.26.88 3.41 1.29.62.22 1.24.38 1.88.54.4.09.84-.07 1.21.09a5.4 5.4 0 012.06 1.64s.1.23 0 .22a3.89 3.89 0 00-1.49.15c.38.6.17 1.51.17 2.19 0 .37-.52.8-.66 1.13s-.3.68-.44 1a4.32 4.32 0 00-.19 1.23.11.11 0 01-.14.08c-.37-.09-.71-.29-1.08-.37-.57-.11-1.15-.11-1.72-.2a7.7 7.7 0 011.18.71 4.93 4.93 0 011 .72c.37.4-.46 1.13-.63 1.42a11.17 11.17 0 00-.94 3.65 9.91 9.91 0 01-1.15 2.8 4.07 4.07 0 00-.66 1.54c0 .16.06.56-.07.71a.25.25 0 01-.3.08 4.91 4.91 0 00-1-.25 2.09 2.09 0 01.2.22c.21.26.57.47.69.79s-.43.88-.61 1.14a2.86 2.86 0 00-.34 2.2c.12.34.31.56 0 .82s-.93.33-.78.93z"/><g mask="url(#mask-4)"><path d="M122.85 93.13c.79-3 1.63-6 2.59-9 2.14-6.63 4.67-13.1 7.25-19.56-.4.26-.6 1.29-.83 1.58a.59.59 0 00-.13.2 5.46 5.46 0 010-.57 13.65 13.65 0 01.34-1.51.16.16 0 00-.12-.2 9.77 9.77 0 00-1.68-.4 9.52 9.52 0 01-1.84-.28 10.82 10.82 0 01-3.1-1.26l.19.09c.14.08.16-.13.06-.2a5 5 0 00-.74-.34 1.68 1.68 0 01-.33-.16 2.61 2.61 0 00-1-.48c-.52-.05-1 .07-1.51 0a11.28 11.28 0 00-1.16-.07c-1.93 0-3.89.39-5 2.12a22.53 22.53 0 00-2.47 6.56 29 29 0 01-1.37 4.14c-.5 1.13-1 2.47-2.13 3.11-.81.46-.52 1.62-.66 2.4-.24 1.3-.49 2.59-.69 3.89s-.46 2.8-.66 4.2a11.77 11.77 0 01-.42 1.94 13.73 13.73 0 00-.38 1.66c0 .11.29.18.73.26 1.5.15 3 .2 4.53.27a50.81 50.81 0 017.86 1z" style="mix-blend-mode:multiply" fill="url(#linear-gradient-4)" opacity=".7"/></g><path class="cls-10" d="M118.88 86.35l.94 1.59s.28.36-1.71.63-9.77 1.11-11.06 2.42l1.56-9.07z"/><path class="cls-11" d="M115.11 86.58a34.11 34.11 0 014.3 1.72c.54-.19.41-.36.41-.36l-.94-1.59-10.27-4.43-.54 3.1a27.81 27.81 0 017.04 1.56z"/><path d="M17.54 49.54a2.49 2.49 0 00-.37.22l1-.58z" fill="#78263f"/><path class="cls-15" d="M119.92 87.94l1-5 6.78-33.18C115.72 42.69 95.4 38 72.36 38S29 42.69 17 49.77L23.78 83l1 5C34.17 81.57 52 77.27 72.36 77.27s38.2 4.3 47.56 10.67z"/><path d="M23.78 83.06a.1.1 0 01-.1-.08l-6.79-33.19a.1.1 0 01.05-.11c12.47-7.37 33.19-11.76 55.42-11.76s43 4.39 55.42 11.76a.11.11 0 11-.11.18c-12.44-7.34-33.12-11.72-55.31-11.72s-42.79 4.37-55.24 11.68l6.77 33.11a.11.11 0 01-.08.13z" fill="#d72d27"/><path class="cls-17" d="M51.62 73.27c-3.43.51-5.15.81-8.56 1.53v-14c-2.08.43-3.12.67-5.19 1.19a10.71 10.71 0 00-1 3 46.53 46.53 0 01-3.17 9.55 11.12 11.12 0 01-1.78 2.76 6.07 6.07 0 01-2.64 1.85 3.47 3.47 0 01-2 0c-.91-.26-1.36-.77-1.36-1.54a1.71 1.71 0 01.41-1.09 1.88 1.88 0 01.88-.67c.75-.25 1.16 0 1.21.89s.38 1.16 1 1a4.41 4.41 0 002.91-3.09 14.47 14.47 0 00.52-4.36c0-1.1-.06-2.34-.18-3.73s-.31-2.9-.38-4.38a13 13 0 011.07-5.33A21.76 21.76 0 0136 52.09c.74-1 1.92-2.42 3.54-4.22l-.28-.37c-3 .71-4.48 1.11-7.45 2a5.84 5.84 0 00-1.3.55c-.76.47-1.51.95-2.24 1.43V51c.31-.64.55-1.1.71-1.39a5.43 5.43 0 01.9-1.49 1.41 1.41 0 01.59.06 1.75 1.75 0 00.91 0 120.56 120.56 0 0120.2-4.47zM42.78 58.6V47.28a6.24 6.24 0 00-2.32 3 21.87 21.87 0 00-1 2.44 23.53 23.53 0 00-.71 2.58c-.46 2-.69 3.08-.72 3.14v1.29c1.89-.51 2.84-.73 4.75-1.13zM66.5 57.14a19.94 19.94 0 01-.42 4.25 21.17 21.17 0 01-1 3.48c-.53 1.28-.92 2.08-1.06 2.35-.38.77-.92 1.72-1.62 2.84-.3.5-.57 1.07-.86 1.51a1.42 1.42 0 01-.93.71c-.46 0-1.25-.52-2.35-1.67a15.62 15.62 0 01-3.4-5.61 36.06 36.06 0 01-1-3.87 19.88 19.88 0 01-.57-4.16v-5c.19-.13.92-.58 2.2-1.31l2.45-1.37h.41v6.5a22.39 22.39 0 00.43 2.81 30.61 30.61 0 001.14 4.4 13.29 13.29 0 001.38 2.8 2.94 2.94 0 001.22 1.2 7.41 7.41 0 00.85-2.41 15.71 15.71 0 00.33-3.25 11 11 0 00-.81-4.34 9.55 9.55 0 00-2.4-3.33c1.38-1.48 2.07-2.22 3.45-3.66a6.16 6.16 0 011.26 1.49 11.15 11.15 0 011.3 5.64zM80.78 69.89c0 .18-.55.62-1.67 1.32a7.76 7.76 0 01-2 1.05c-.4 0-.85-.42-1.34-1.2-.16-.28-.41-.71-.73-1.3a8.79 8.79 0 00-2.08 1A15.26 15.26 0 0170.69 72c-.21 0-.58-.31-1.1-.94a8.91 8.91 0 01-1.91-5.85 9.52 9.52 0 01.32-2.63 10.34 10.34 0 011.81-3 8.13 8.13 0 013.42-2.52c1.13-.47 1.7-.88 1.7-1.22 0-.57-.42-1.14-1.26-1.72a4.16 4.16 0 00-1.67-.88 4.58 4.58 0 00-.94.25 5.11 5.11 0 01-1.26.26 2.56 2.56 0 01-1.16-.26.85.85 0 01-.55-.82.69.69 0 01.73-.79 6 6 0 011 .18 1.83 1.83 0 00.45.07 6.46 6.46 0 002.19-.74l3.14-1.5c.43 0 1.24.54 2.44 1.6s2 2.26 2 3.14v13.65a2.92 2.92 0 00.33.9 5.83 5.83 0 00.41.71zM74.8 68c0-3.86-.07-5.79-.12-9.64a3.43 3.43 0 00-1.93 1.93 6.16 6.16 0 00-.75 2.46 8.75 8.75 0 00.79 3.51c.53 1.22 1.12 1.91 1.44 1.84.09-.02.3-.1.57-.1zM87.76 72.58c-2.17-.23-3.26-.32-5.43-.47v-26a18.24 18.24 0 012.57-1 16.54 16.54 0 012.86-.83zM103.27 64a8.71 8.71 0 01-.72 3.58 7.06 7.06 0 01-1.16 1.8c-.86 1-1.52 1.76-2 2.26-1.44 1.49-2.39 2.21-2.85 2.13a2.91 2.91 0 01-1.37-.88c-.54-.53-1-1-1.53-1.54a14.54 14.54 0 01-3.11-4.06 10.14 10.14 0 01-1.1-4.65 9.27 9.27 0 01.57-3.27 8.57 8.57 0 011.5-2.6c3-3.51 4.69-5.16 5.12-5.09A10.86 10.86 0 0198.78 54a25.54 25.54 0 012.89 4.1 16 16 0 011.14 2.9 10.81 10.81 0 01.46 3zm-3.69 4.06a14.41 14.41 0 00-1.64-6.56c-1.64-3.21-3-4.89-4.15-5.06-.32-.05-.55.17-.67.65a6.15 6.15 0 00-.18 1.52 11.35 11.35 0 001.41 5.9A31.18 31.18 0 0099 69.72a1.4 1.4 0 00.48-.63 3.2 3.2 0 00.1-1.02zM119.28 76.9c0 .32-.57.74-1.72 1.27a4.78 4.78 0 01-2.07.7c-.21-.06-.62-.63-1.22-1.66a5.9 5.9 0 01-1-2.63V61.82a4.51 4.51 0 00-.39-1.54c-.27-.65-.58-1-.95-1.14a.55.55 0 00-.59.24.89.89 0 00-.28.56V77c-2.2-.61-3.31-.89-5.52-1.41V58.33A2.66 2.66 0 00105 57c-.33-.52-.5-.79-.5-.81s.69-.47 2.07-.88a9.06 9.06 0 012.35-.54c.39.11.84.65 1.33 1.62s.82 1.49 1 1.54a8.78 8.78 0 002.76-.46c1.52-.39 2.31-.55 2.36-.54.31.1.7.58 1.17 1.43a6.09 6.09 0 01.86 3v12.76a3.88 3.88 0 00.28 1.23c.2.51.4 1.02.6 1.55z"/><path class="cls-18" d="M51.62 72.27c-3.43.5-5.15.81-8.56 1.52V59.74c-2.08.44-3.12.68-5.19 1.19a10.71 10.71 0 00-1 3 46.64 46.64 0 01-3.17 9.56 11.3 11.3 0 01-1.78 2.76 6 6 0 01-2.64 1.84 3.46 3.46 0 01-2 0c-.91-.26-1.36-.77-1.36-1.55a1.7 1.7 0 01.41-1.08 1.9 1.9 0 01.88-.68c.75-.25 1.16.05 1.21.89s.38 1.16 1 1a4.37 4.37 0 002.91-3.09 14.42 14.42 0 00.52-4.36q0-1.65-.18-3.72c-.12-1.38-.31-2.91-.38-4.39a12.91 12.91 0 011.07-5.32A21.57 21.57 0 0136 51.08c.74-1 1.92-2.41 3.54-4.21-.11-.15-.16-.23-.28-.38-3 .71-4.48 1.11-7.45 2a6.35 6.35 0 00-1.3.55c-.76.48-1.51.95-2.24 1.43V50c.31-.64.55-1.11.71-1.4a5.64 5.64 0 01.9-1.49 1.73 1.73 0 01.59.07 2 2 0 00.91 0 119.58 119.58 0 0120.2-4.47zm-8.84-14.68V46.28a6.15 6.15 0 00-2.32 2.95 21.87 21.87 0 00-1 2.44 23.53 23.53 0 00-.71 2.58c-.46 2-.69 3.09-.72 3.15v1.28c1.89-.46 2.84-.68 4.75-1.09zM66.5 56.13a20 20 0 01-.42 4.26 21.78 21.78 0 01-1 3.48c-.53 1.27-.92 2.07-1.06 2.35-.38.77-.92 1.71-1.62 2.83-.3.5-.57 1.07-.86 1.51a1.44 1.44 0 01-.93.72c-.46 0-1.25-.53-2.35-1.67a15.58 15.58 0 01-3.4-5.61 36.41 36.41 0 01-1-3.86 20 20 0 01-.57-4.16v-5c.19-.13.92-.57 2.2-1.3l2.45-1.38h.41v6.5a22.12 22.12 0 00.43 2.81 30 30 0 001.15 4.43 13.15 13.15 0 001.37 2.76 2.9 2.9 0 001.22 1.2 7.35 7.35 0 00.85-2.4 15.81 15.81 0 00.33-3.26 11 11 0 00-.81-4.34 9.55 9.55 0 00-2.4-3.33c1.38-1.48 2.07-2.21 3.45-3.66a6.35 6.35 0 011.26 1.53 11.18 11.18 0 011.3 5.59zM80.78 68.88c0 .19-.55.62-1.67 1.32a7.4 7.4 0 01-2 1c-.4 0-.85-.41-1.34-1.2-.16-.27-.41-.7-.73-1.3a9.2 9.2 0 00-2.08 1 14.87 14.87 0 01-2.27 1.3c-.21 0-.58-.31-1.1-1a8.9 8.9 0 01-1.91-5.84 9.47 9.47 0 01.32-2.58 10.35 10.35 0 011.81-3 8 8 0 013.42-2.51c1.13-.47 1.7-.88 1.7-1.23 0-.56-.42-1.14-1.26-1.72a4.31 4.31 0 00-1.67-.89 5.44 5.44 0 00-.94.25 4.68 4.68 0 01-1.26.26 2.55 2.55 0 01-1.16-.25.87.87 0 01-.55-.83c0-.51.24-.77.73-.78a4.79 4.79 0 011 .17 1.94 1.94 0 00.45.08 6.55 6.55 0 002.19-.75c1-.48 2.08-1 3.14-1.5.43 0 1.24.54 2.44 1.6s2 2.26 2 3.14v13.66a3.12 3.12 0 00.33.9 5.23 5.23 0 00.41.7zm-6-1.94c0-3.85-.07-5.78-.12-9.64a3.45 3.45 0 00-1.93 1.94 6.12 6.12 0 00-.73 2.51 8.79 8.79 0 00.79 3.51c.53 1.22 1.12 1.91 1.44 1.83.09-.02.3-.09.57-.15zM87.76 71.58c-2.17-.23-3.26-.33-5.43-.47v-26a17.72 17.72 0 012.57-1 18.72 18.72 0 012.86-.83zM103.27 63a8.67 8.67 0 01-.72 3.58 7 7 0 01-1.16 1.81c-.86 1-1.52 1.75-2 2.25-1.44 1.49-2.39 2.22-2.85 2.14a2.87 2.87 0 01-1.37-.89c-.54-.52-1-1-1.53-1.54a14.5 14.5 0 01-3.11-4 10.17 10.17 0 01-1.1-4.65 9.32 9.32 0 01.57-3.34 8.69 8.69 0 011.5-2.6c3-3.51 4.69-5.16 5.12-5.08A10.57 10.57 0 0198.78 53a25.54 25.54 0 012.89 4.09 16 16 0 011.14 2.91 10.86 10.86 0 01.46 3zm-3.69 4.07a14.45 14.45 0 00-1.64-6.57q-2.46-4.81-4.15-5c-.32-.05-.55.16-.67.64a6.27 6.27 0 00-.18 1.52 11.39 11.39 0 001.41 5.91A31.59 31.59 0 0099 68.72a1.52 1.52 0 00.48-.63 3.29 3.29 0 00.1-1.02zM119.28 75.89c0 .33-.57.74-1.72 1.28a5.11 5.11 0 01-2.07.7c-.21-.07-.62-.63-1.22-1.66a5.89 5.89 0 01-1-2.64V60.82a4.46 4.46 0 00-.39-1.54c-.27-.66-.58-1-.95-1.14a.56.56 0 00-.59.23.94.94 0 00-.28.57V76c-2.2-.61-3.31-.89-5.52-1.41V57.33A2.6 2.6 0 00105 56a9.09 9.09 0 01-.5-.82c0-.16.69-.46 2.07-.88a8.8 8.8 0 012.35-.53c.39.1.84.64 1.33 1.62s.82 1.49 1 1.54a8.61 8.61 0 002.76-.47 22.26 22.26 0 012.36-.53c.31.1.7.58 1.17 1.42a6.12 6.12 0 01.86 3v12.76a4 4 0 00.28 1.24c.2.5.4 1.02.6 1.54z"/><g opacity=".6"><path class="cls-20" d="M43.06 73.68v.11l2.66-.54zM27.25 78.05a3.46 3.46 0 002 0 6 6 0 002.64-1.84c.2-.23.4-.48.59-.74l-1.69.31a4 4 0 01-1.46.8.61.61 0 01-.87-.39q-1.3.21-2.61.36c.07.76.52 1.24 1.4 1.5zM31.85 48.47c3-.87 4.46-1.27 7.45-2 .12.15.17.23.28.38-1.62 1.8-2.8 3.21-3.54 4.21-.55.74-1 1.46-1.46 2.16l1.42-.35 3.3-.81c.05-.13.09-.26.13-.39a21.87 21.87 0 011-2.44 6.15 6.15 0 012.32-2.95v5q3.93-.89 7.89-1.62l.95-.17v-6.8a119.58 119.58 0 00-20.2 4.47 2 2 0 01-.91 0 1.73 1.73 0 00-.59-.07 5.64 5.64 0 00-.9 1.49c-.16.29-.4.76-.71 1.4v.44c.73-.48 1.48-1 2.24-1.43a6.35 6.35 0 011.33-.52zM44.93 56.08l-2.15.48v1c-1.91.41-2.86.63-4.75 1.09v-1c-1.9.47-3.79 1-5.68 1.48a10.79 10.79 0 00-.11 1.87c0 1 .14 2 .24 2.93l4.66-1.19a6.88 6.88 0 01.7-1.84c2.07-.51 3.11-.75 5.19-1.19v1.55l3.33-.83c1.74-.42 3.49-.82 5.23-1.22v-4.5c-2.2.44-4.43.88-6.66 1.37zM49.93 64.92l1.69-.33v-.06zM54.85 64l5.46-1c0-.1-.09-.2-.13-.31q-2.7.57-5.38 1.17a1.09 1.09 0 01.05.14zM65.68 62c0-.16.09-.31.13-.47h-.16l-2 .4v.42zM58.34 54.7v-1.1c-1.69.26-3.38.55-5.06.84v1.5a17 17 0 00.3 2.87c1.74-.39 3.48-.75 5.22-1.11v-.19a22.12 22.12 0 01-.46-2.81zM61.06 53.19A9.55 9.55 0 0162.89 56a8.31 8.31 0 01.31.88l3.3-.61v-.09a13.55 13.55 0 00-.5-3.68c-1.63.22-3.28.5-4.94.69zM74.71 59.94v.42l5.37-.94v-.31c-1.78.26-3.58.54-5.37.83zM72.29 60.33c-1.37.23-2.74.48-4.1.73a3.39 3.39 0 00-.19.48l4.14-.73q.06-.23.15-.48zM73 51.66c-1.58.18-3.15.36-4.72.56a1.09 1.09 0 00.35.27 2.55 2.55 0 001.16.25 4.68 4.68 0 001.26-.26 5.44 5.44 0 01.94-.25 4.31 4.31 0 011.66.87c.82.56 1.24 1.12 1.26 1.67 1.72-.28 3.45-.55 5.17-.81v-.34a4 4 0 00-1.43-2.56c-1.87.19-3.76.38-5.65.6zM87.76 58l-5.43.75V59l5.43-1zM82.33 50.7v2.93c1.81-.26 3.62-.52 5.43-.76V50.2zM87.76 45v-1.8a18.72 18.72 0 00-2.86.8 17.72 17.72 0 00-2.57 1v.39c1.81-.11 3.67-.26 5.43-.39zM86.86 71.08l-1.72.24 2.62.26V71zM95.69 51.85l1.93-.23c-.54-.61-.88-.92-1-.94s-.78.38-1.66 1.26zM93.56 70.28a.46.46 0 00.07.07c.48.5 1 1 1.53 1.54a2.87 2.87 0 001.37.89c.46.08 1.41-.65 2.85-2.14.26-.27.58-.61.94-1-2.26.19-4.51.36-6.76.64zM118.42 62.52v-.37l-3.29.41-1.89.25v.41c1.4-.17 2.8-.34 4.2-.55.33-.04.66-.1.98-.15zM111 63.11l-5.52.75V64q2.76-.26 5.52-.56zM105.51 69.14v5.41c2.21.52 3.32.8 5.52 1.41V68.6c-1.84.2-3.68.4-5.52.54zM118.42 73.11v-5.4h-.09c-1.69.24-3.39.44-5.09.64v5.21a5.89 5.89 0 001 2.64c.6 1 1 1.59 1.22 1.66a5.11 5.11 0 002.07-.7c1.15-.54 1.72-1 1.72-1.28-.2-.52-.4-1-.58-1.54a4 4 0 01-.25-1.23z"/></g><path d="M102.91 20.85c.51-2.65 2.81-4.62 5.24-4.32.53-2.93.75-4.42 1.26-7.38-5.61 2.56-8.41 3.85-14.2 6.26 0 0 .14 5.42.15 7.71s-1.29 2.67-4.31 2.56-4.29-.57-4.29-2.8-.09-7.53-.09-7.53C81.54 10 79.06 7.15 74.11 1.57c-5 5.58-7.43 8.42-12.56 13.78 0 0-.08 5.31-.09 7.53s-1.26 2.68-4.29 2.8-4.33-.28-4.31-2.56.15-7.71.15-7.71c-5.75-2.43-8.59-3.7-14.23-6.26.51 3 .73 4.45 1.26 7.38 2.42-.31 4.73 1.67 5.24 4.32s-.39 4.83-2.66 5.35a47.18 47.18 0 002.81 7.34c5.07-.78 6.92-1.08 12-1.52a161.72 161.72 0 0116.62-.71 161.72 161.72 0 0116.68.69c5.11.44 6.9.63 12 1.4a46.57 46.57 0 002.86-7.22c-2.29-.5-3.19-2.76-2.68-5.33zm-28.8 4.3a4.29 4.29 0 01-4.38-4.34 4.39 4.39 0 118.76 0 4.29 4.29 0 01-4.38 4.34z" fill="#d08429"/><path class="cls-18" d="M102.91 19.29c.51-2.65 2.81-4.63 5.24-4.33.53-2.93.75-4.41 1.26-7.37-5.64 2.55-8.48 3.83-14.23 6.25 0 0 .14 5.43.15 7.71s-1.29 2.67-4.31 2.56-4.29-.57-4.29-2.79-.09-7.53-.09-7.53C81.54 8.42 79.06 5.58 74.11 0c-5 5.58-7.43 8.42-12.56 13.79 0 0-.08 5.3-.09 7.53S60.2 24 57.17 24.11s-4.33-.28-4.31-2.56.15-7.71.15-7.71c-5.75-2.42-8.59-3.7-14.23-6.25.51 3 .73 4.44 1.26 7.37 2.42-.3 4.73 1.68 5.24 4.33a4.37 4.37 0 01-3.11 5.36A46.86 46.86 0 0044.76 32c5.07-.77 7.62-1.08 12.73-1.51a161.73 161.73 0 0116.62-.72 161.73 161.73 0 0116.62.72c5.11.43 7.66.74 12.73 1.51a46.86 46.86 0 002.54-7.35 4.37 4.37 0 01-3.09-5.36zm-28.8 4.29a4.28 4.28 0 01-4.38-4.34 4.39 4.39 0 118.76 0 4.28 4.28 0 01-4.38 4.34z"/><path class="cls-22" d="M86.73 18.13c0-2.15-.06-4.34-.06-4.34l-.29-.3c-2.72 1.22-5.51 2.5-8.32 3.8a4.75 4.75 0 01.43 1.95 4.25 4.25 0 01-.65 2.31c2.89-1.18 5.85-2.33 8.89-3.42zM109.44 7.59c-5.64 2.55-8.48 3.83-14.23 6.25v1.51c4.46-1.35 8.96-2.47 13.49-3.35.23-1.36.43-2.61.74-4.41zM70.11 21.05C63 24.48 56.09 28 50.47 31.17c2.13-.27 4.18-.47 7-.71l1.4-.12a241.6 241.6 0 0114.34-6.84 4.26 4.26 0 01-3.1-2.45zM82.24 9.08C79.62 6.23 77.41 3.73 74.11 0c-5 5.58-7.43 8.42-12.56 13.79v.81c6.7-1.84 13.68-3.71 20.69-5.52z"/><path d="M102.91 19.29a5.67 5.67 0 011.15-2.48c-2.72 1.14-5.66 2.39-8.71 3.73v1c0 2.28-1.29 2.67-4.31 2.56a10 10 0 01-2.77-.38c-4.14 1.91-8.33 3.94-12.35 6 5.5 0 8.8.19 14.8.71 5.11.43 7.66.74 12.73 1.51a46.86 46.86 0 002.55-7.29 4.37 4.37 0 01-3.09-5.36z" opacity=".3" fill="#ffdc83"/><path class="cls-22" d="M40.07 15c2.38-.3 4.63 1.61 5.2 4.18 2.48-.7 5-1.43 7.67-2.16 0-1.7.07-3.14.07-3.14-5.75-2.42-8.59-3.7-14.23-6.25.51 3 .73 4.44 1.26 7.37z"/><path class="cls-15" d="M76.65 80.26c-1.72-.07-3.47-.11-5.25-.11h-1.34a54.64 54.64 0 01-24.65 26.35c23.45 12.35 27.66 36.32 27.66 36.32s4.42-23.94 28-36.14a54.48 54.48 0 01-24.42-26.42z"/><path d="M75.87 90c-.67 1.15-1.27 2.3-1.87 3.41q-1.83 3.75-3 6.41c-.94 2.06-1.79 4-2.56 5.84-1.11 2.68-1.67 4-1.67 4.07-.62 1.29-1.5 2.9-2.61 4.85a52.51 52.51 0 01-3.23 5.06 41.91 41.91 0 01-4.13 4.59 30.64 30.64 0 01-5.22 3.91 2 2 0 01-.39-.26.6.6 0 01-.18-.47c0-.28.8-1.43 2.4-3.44a26.46 26.46 0 002.19-3 26.76 26.76 0 001.8-3.44c.58-1.28 1.16-2.62 1.75-4q2.36-4.8 4-8.86 1-2.5 2-5.63c0-.7-2.43-1-7.31-1a7.81 7.81 0 00-2.14.33 6 6 0 00-2.14 1.18h-1.5v-1.1a24.29 24.29 0 016.53-6.73 9.83 9.83 0 015.27-1.51c.56 0 1.43.07 2.61.2a25 25 0 002.71.21c.91 0 1.62-.07 2.14-.1a6.71 6.71 0 003.5-1.15h.89z" fill="url(#linear-gradient-5)"/><path class="cls-15" d="M51.62 130.17l-.87-.44a3.44 3.44 0 01-.76-.5 2.33 2.33 0 01-.8-1.82c0-.74.25-1.36 2.78-4.55a24.29 24.29 0 003.77-6.08c.57-1.28 1.14-2.61 1.73-4v-.08c1.54-3.14 2.85-6.08 3.91-8.74.48-1.22 1-2.56 1.45-4a42.78 42.78 0 00-5.12-.22 6.1 6.1 0 00-1.63.26 4.22 4.22 0 00-1.5.83l-.5.42h-3.8v-3.44l.33-.46a25.71 25.71 0 017-7.23 11.71 11.71 0 016.21-1.78 26.58 26.58 0 012.82.23 23.36 23.36 0 002.5.19c.82 0 1.52-.06 2-.1a5 5 0 002.49-.75l.49-.4h2.94l.63 2.73-.34.6c-.65 1.16-1.25 2.3-1.79 3.37-1.24 2.48-2.27 4.62-3 6.35-.93 2-1.78 4-2.53 5.79-1 2.37-1.38 3.33-1.54 3.71v.08l-.18.37c-.64 1.32-1.53 3-2.66 5a54 54 0 01-3.37 5.25 43.76 43.76 0 01-4.31 4.8 33.56 33.56 0 01-5.53 4.15zm9.11-15.94c-.59 1.39-1.17 2.72-1.74 4-.35.79-.72 1.54-1.1 2.24.54-.61 1.07-1.26 1.59-1.93a49 49 0 003.1-4.86c1.08-1.89 1.94-3.49 2.55-4.73.21-.56.66-1.64 1.63-4 .76-1.84 1.63-3.82 2.58-5.9.8-1.76 1.84-3.94 3.11-6.47l.29-.58c-.38.07-.79.13-1.22.18-.61 0-1.34.08-2.27.11a29.42 29.42 0 01-3-.22 22.48 22.48 0 00-2.4-.19 8.07 8.07 0 00-4.34 1.25 16.69 16.69 0 00-3.64 3.23 9 9 0 011.87-.22c6.29 0 9.09.41 9.09 2.83v.27l-.08.27c-.67 2.11-1.35 4-2 5.74-1.1 2.75-2.45 5.75-4.02 8.98z"/><path d="M96.38 113.93a7.45 7.45 0 01-1.1 3.18 26.36 26.36 0 01-4.38 5.69c-2.19 2.23-3.38 3.41-3.55 3.55a8.25 8.25 0 01-5.12 1.57 9.53 9.53 0 01-7.15-3.19q-2.55-2.72-2.55-5.22a7.32 7.32 0 011.74-4.12c1.17-1.57 2.36-3.13 3.58-4.7a14.63 14.63 0 01-2.4-2.69 5.59 5.59 0 01-1-3.31 8.81 8.81 0 011.73-4.86q1.61-2.23 2.71-3.83a20 20 0 014.49-5 7 7 0 013.87-1.14 8.55 8.55 0 015.4 1.77 5.77 5.77 0 012.27 4.8 9 9 0 01-2.72 6.21q-2.72 2.92-2.71 4a49.67 49.67 0 014.7 3.45 5.18 5.18 0 012.19 3.84zm-6.79 4.59q0-1.67-4-4.07-3.55-2.15-4.54-2.14c-.25 0-.59.38-1 1.15a4.11 4.11 0 00-.65 2c0 1.43.86 2.79 2.61 4.07a7.72 7.72 0 004.54 1.78 3.05 3.05 0 002-.89 2.54 2.54 0 001.04-1.9zm-1.93-16.6a4 4 0 00-1.4-2.71 5 5 0 00-3.62-1.62 2.22 2.22 0 00-1.56.57 1.88 1.88 0 00-.62 1.41q0 1.73 2.64 3.71c1.52 1.15 2.51 1.72 3 1.72s.65-.38 1-1.15a4.54 4.54 0 00.56-1.93z" fill="url(#linear-gradient-6)"/><path class="cls-15" d="M82.23 129.7a11.32 11.32 0 01-8.44-3.7c-2-2.15-3.05-4.31-3.05-6.45a8.8 8.8 0 012.11-5.18c.85-1.15 1.73-2.32 2.62-3.47A18.5 18.5 0 0174 109a7.39 7.39 0 01-1.37-4.34 10.5 10.5 0 012-5.85c1.16-1.51 2.08-2.81 2.8-3.81a21.17 21.17 0 015-5.48 8.82 8.82 0 014.84-1.44 10.25 10.25 0 016.49 2.16 7.57 7.57 0 013 6.2 10.78 10.78 0 01-3.19 7.43 20.67 20.67 0 00-1.8 2.15c1.35.93 2.57 1.85 3.62 2.73 1.88 1.62 2.83 3.35 2.83 5.18a8.75 8.75 0 01-1.31 4 28.33 28.33 0 01-4.68 6.09c-3.36 3.41-3.57 3.58-3.71 3.69a10.07 10.07 0 01-6.29 1.99zm-4-16.61c-.86 1.12-1.72 2.25-2.55 3.36a5.55 5.55 0 00-1.39 3.06c0 1.2.69 2.54 2.07 4a7.75 7.75 0 005.85 2.63 6.52 6.52 0 004-1.18c.12-.11.61-.58 2.44-2.43a4.41 4.41 0 01-2.1.54A9.48 9.48 0 0181 121c-2.21-1.64-3.34-3.49-3.34-5.51a5.39 5.39 0 01.59-2.4zm2.84-2.56c.89 0 2.16.41 5.46 2.39s4.83 3.75 4.83 5.6a3.76 3.76 0 01-.3 1.46 21.79 21.79 0 002.64-3.72 5.84 5.84 0 00.88-2.33 3.61 3.61 0 00-1.58-2.46 46.82 46.82 0 00-4.52-3.31l-.8-.52v-1a3.31 3.31 0 01.08-.68 2.39 2.39 0 01-1.73.79c-.79 0-1.74-.34-4-2.08s-3.35-3.37-3.35-5.13v-.2l-1.12 1.53a7 7 0 00-1.37 3.79 3.82 3.82 0 00.72 2.29 13.68 13.68 0 002.09 2.41l1.25 1.1-.29.38a2.08 2.08 0 011.13-.31zm1.55-14.72A6.75 6.75 0 0187.53 98a5.69 5.69 0 011.91 4 4.92 4.92 0 01-.25 1.51c.45-.59 1-1.25 1.71-2a7.29 7.29 0 002.24-5A4 4 0 0091.55 93a6.7 6.7 0 00-4.3-1.39 5.21 5.21 0 00-2.9.86A14.87 14.87 0 0081 96.12a4.14 4.14 0 011.64-.31z"/><path class="cls-17" d="M75.86 89.79C75.2 91 74.59 92.12 74 93.23c-1.26 2.51-2.28 4.65-3.08 6.42-.94 2-1.8 4-2.56 5.84-1.11 2.68-1.67 4-1.67 4.07q-.95 1.92-2.61 4.85a53 53 0 01-3.24 5 40.87 40.87 0 01-4.12 4.59 30.91 30.91 0 01-5.18 4 1.66 1.66 0 01-.39-.26.58.58 0 01-.18-.47c0-.27.8-1.42 2.4-3.44a27.43 27.43 0 002.19-3 28.16 28.16 0 001.8-3.44c.57-1.29 1.16-2.63 1.75-4 1.56-3.19 2.89-6.15 4-8.86.67-1.67 1.33-3.54 2-5.63q0-1-7.31-1a7.48 7.48 0 00-2.14.34 6 6 0 00-2.14 1.17h-1.46V98.2a24.21 24.21 0 016.53-6.74A9.83 9.83 0 0163.86 90a25 25 0 012.61.21 25 25 0 002.71.21c.91 0 1.62-.07 2.14-.11a6.65 6.65 0 003.5-1.15h.89zM96.38 113.75a7.49 7.49 0 01-1.1 3.19 26.61 26.61 0 01-4.38 5.69c-2.2 2.22-3.38 3.41-3.55 3.54a8.27 8.27 0 01-5.12 1.57 9.55 9.55 0 01-7.15-3.18c-1.7-1.81-2.56-3.55-2.56-5.22a7.34 7.34 0 011.75-4.13c1.17-1.56 2.36-3.13 3.58-4.69a15 15 0 01-2.4-2.69 5.62 5.62 0 01-1-3.32 8.81 8.81 0 011.72-4.85q1.68-2.25 2.77-3.81a19.59 19.59 0 014.49-5 6.93 6.93 0 013.86-1.15 8.51 8.51 0 015.4 1.77 5.79 5.79 0 012.28 4.81 9 9 0 01-2.72 6.21q-2.72 2.92-2.71 4a48.21 48.21 0 014.69 3.44 5.17 5.17 0 012.15 3.82zm-6.79 4.6q0-1.68-4-4.08c-2.36-1.42-3.88-2.14-4.54-2.14-.24 0-.58.39-1 1.15a4.18 4.18 0 00-.66 2q0 2.13 2.61 4.07a7.79 7.79 0 004.54 1.77 3 3 0 002-.89 2.52 2.52 0 001.05-1.88zm-1.93-16.6a4 4 0 00-1.4-2.75 5 5 0 00-3.63-1.62 2.2 2.2 0 00-1.55.58 1.82 1.82 0 00-.62 1.41q0 1.72 2.64 3.7c1.52 1.15 2.5 1.73 3 1.73s.66-.39 1-1.15a4.58 4.58 0 00.56-1.9z"/><path class="cls-18" d="M75.86 88.74c-.66 1.18-1.27 2.33-1.82 3.44-1.26 2.51-2.28 4.64-3.08 6.42-.94 2.05-1.8 4-2.56 5.84-1.11 2.67-1.67 4-1.67 4.06q-.95 1.94-2.61 4.85a52.15 52.15 0 01-3.24 5.06 40.87 40.87 0 01-4.12 4.59 31.45 31.45 0 01-5.22 3.91 2 2 0 01-.39-.26.58.58 0 01-.18-.47c0-.28.8-1.42 2.4-3.44a27.43 27.43 0 002.19-3 28.16 28.16 0 001.8-3.44c.57-1.29 1.16-2.63 1.75-4 1.56-3.19 2.89-6.15 4-8.86.67-1.67 1.33-3.54 2-5.63q0-1-7.31-1a7.48 7.48 0 00-2.14.34 5.85 5.85 0 00-2.14 1.17h-1.46v-1.17a24.07 24.07 0 016.53-6.74 9.83 9.83 0 015.27-1.51 25 25 0 012.61.21 25 25 0 002.71.21c.91 0 1.62-.07 2.14-.11a6.65 6.65 0 003.5-1.15h.89zM96.38 112.7a7.41 7.41 0 01-1.1 3.18 26.36 26.36 0 01-4.38 5.69q-3.3 3.34-3.55 3.55a8.27 8.27 0 01-5.12 1.57 9.53 9.53 0 01-7.15-3.19c-1.7-1.8-2.56-3.54-2.56-5.21a7.34 7.34 0 011.75-4.13q1.76-2.34 3.58-4.7a14.9 14.9 0 01-2.4-2.68 5.65 5.65 0 01-1-3.32 8.81 8.81 0 011.72-4.85q1.68-2.25 2.77-3.81a19.59 19.59 0 014.49-5 6.93 6.93 0 013.86-1.15 8.51 8.51 0 015.4 1.77 5.78 5.78 0 012.28 4.8 9 9 0 01-2.72 6.22q-2.72 2.91-2.71 4a49.9 49.9 0 014.69 3.45 5.17 5.17 0 012.15 3.81zm-6.79 4.59q0-1.67-4-4.07c-2.36-1.42-3.88-2.14-4.54-2.14-.24 0-.58.38-1 1.15a4.18 4.18 0 00-.66 2q0 2.15 2.61 4.08a7.79 7.79 0 004.54 1.77 3.06 3.06 0 002-.89 2.54 2.54 0 001.05-1.9zm-1.93-16.6a4 4 0 00-1.4-2.69 5 5 0 00-3.63-1.62 2.16 2.16 0 00-1.55.58 1.82 1.82 0 00-.62 1.41c0 1.14.88 2.38 2.64 3.7 1.52 1.15 2.5 1.72 3 1.72s.66-.38 1-1.14a4.58 4.58 0 00.56-1.96z"/><path class="cls-20" d="M53.71 97.69c2.61-.79 5-2.22 7.67-3 2.92-.83 6-1 8.93-1.64a5.11 5.11 0 013.14.3c.19-.39.38-.78.59-1.19.55-1.11 1.16-2.26 1.82-3.44l-.15-.68h-.89a6.74 6.74 0 01-3.5 1.15c-.52 0-1.23.07-2.14.11a25 25 0 01-2.71-.21 25 25 0 00-2.61-.21 9.83 9.83 0 00-5.27 1.51 24.07 24.07 0 00-6.53 6.74v1.09h.4a5.7 5.7 0 011.25-.53zM52 124.55a5.42 5.42 0 00-1 1.63.58.58 0 00.18.47 2 2 0 00.39.26 31.45 31.45 0 005.19-3.91c.38-.36.76-.74 1.13-1.13-1.97.88-3.95 1.77-5.89 2.68zM60.76 109.44a5.74 5.74 0 015.41.17c.2-.39.39-.76.56-1.11 0 0 .56-1.39 1.67-4.06.1-.25.22-.51.32-.76a36.18 36.18 0 00-4.61.93c-.61.18-1.2.39-1.78.61a89.56 89.56 0 01-2 4.4zM77.64 109.85h-.09c-1.11 1.44-2.21 2.87-3.28 4.31a7.34 7.34 0 00-1.75 4.13 6.94 6.94 0 001.69 4.19c7.6 8.54 14.67 2.18 7.15-3a5.24 5.24 0 01-3.51-1.55c-2.27-2.31-1.85-5.61-.21-8.08zM87.24 88.64a6.93 6.93 0 00-3.86 1.15 19.59 19.59 0 00-4.49 5c-.6.86-1.34 1.88-2.21 3a10.62 10.62 0 00-2.19 4.61 6.76 6.76 0 00-.09 1 5.65 5.65 0 001 3.32 14.9 14.9 0 002.4 2.68l-.16.21h.08a14.06 14.06 0 011.11-1.42 7.46 7.46 0 01-1.32-2.48c-.69-3 .93-5 3-6.64a2.77 2.77 0 01-.13-.78 1.82 1.82 0 01.62-1.41 2.16 2.16 0 011.55-.58 4.63 4.63 0 011.49.27c2.84-2.1 5.49-4.38 8.41-6.29a8.5 8.5 0 00-5.21-1.64z"/></g></g></g></svg>