<?xml version="1.0" encoding="utf-8"?>
<!-- Generator: Adobe Illustrator 27.9.0, SVG Export Plug-In . SVG Version: 6.00 Build 0)  -->
<svg version="1.1" id="Слой_1" xmlns="http://www.w3.org/2000/svg" xmlns:xlink="http://www.w3.org/1999/xlink" x="0px" y="0px"
	 viewBox="0 0 2500 516.67" style="enable-background:new 0 0 2500 516.67;" xml:space="preserve">
<style type="text/css">
	.st0{fill:#FFFFFF;}
</style>
<g>
	<path class="st0" d="M203.74,379.23h334.01L500.71,500.4h-396.7c-59.16,0-101.48-57.19-84.18-113.76L133.06,16.27h181.65
		L203.74,379.23z M782.59,309.44h306.18c-1.72-16.59-1.58-33.67,0.56-51.1c2.14-17.44,6.21-34.52,11.99-51.11H813.84l21.33-69.79
		h302.57c17.75-25.06,39.67-48.17,64.92-68.71l16.04-52.45H690.57L577.34,386.62c-17.3,56.57,25.02,113.77,84.18,113.77h409.17
		l37.05-121.16H761.25L782.59,309.44z M2290.36,16.28l-81.22,265.68c-51.02-75.62-102.02-151.26-153.04-226.88
		c-16.36-24.26-43.72-38.8-72.98-38.8h-114.96c-17.12,56.02-34.26,112.04-51.38,168.06c5.02,23.61,6.19,48.42,3.05,74
		c-6.73,54.86-32.44,106.12-71.46,149.78c-9.4,30.75-18.81,61.52-28.21,92.27h181.65l82.13-268.62
		c60.4,89.54,120.79,179.08,181.19,268.62H2324c49.34-161.37,98.68-322.74,148.02-484.11H2290.36z M1776.05,258.33
		c-17.21,140.17-175.09,253.8-352.63,253.8s-307.51-113.63-290.3-253.8c17.21-140.17,175.09-253.8,352.63-253.8
		C1663.28,4.54,1793.26,118.16,1776.05,258.33z M1469.42,137.45c-84.56,0-159.76,54.12-167.95,120.88
		c-8.2,66.76,53.71,120.88,138.27,120.88c84.56,0,159.76-54.12,167.95-120.88C1615.89,191.57,1553.98,137.45,1469.42,137.45z"/>
</g>
</svg>
