<svg xmlns="http://www.w3.org/2000/svg" xml:space="preserve" width="1501" height="446" viewBox="-0.556 -0.55 1501 446"><path fill="#FED041" d="M118.774 364.629q-9.961.001-14.648 8.672v-28.242H86.665v79.98h9.316q2.243-7.382 3.896-9.082 3.806 6.213 7.553 8.262t9.719 2.051q11.477 0 17.566-8.496 6.089-8.494 6.089-22.324 0-14.354-5.918-22.588-5.917-8.232-16.112-8.233m1.348 45.674q-2.813 3.839-7.148 3.838-3.633 0-6.24-3.164-2.607-3.163-2.607-9.375v-11.309q0-6.679 2.52-10.313 2.519-3.632 6.797-3.633 3.691 0 6.592 3.223 2.9 3.224 2.9 15.82-.002 11.077-2.814 14.913m91.019-11.924q0-17.635-8.174-25.693-8.173-8.056-19.6-8.057-12.657.001-20.713 8.672-8.057 8.673-8.057 22.793 0 9.493 4.014 16.289 4.013 6.798 10.195 10.342t15.029 3.545q20.272 0 26.895-20.508l-15.82-1.172q-1.758 9.316-10.488 9.316-4.688.001-8.057-3.223-3.37-3.222-3.369-9.551 0-1.17.059-2.754h38.086zm-27.129-22.324q9.198 0 10.02 12.188h-21.035q1.172-12.187 11.015-12.188m65.232 34.688q-1.4-1.582-1.4-6.27v-25.02h12.715V365.86h-12.715v-18.633l-15.059 1.172-1.406 17.461h-10.371v13.594h9.375v27.539q0 10.958 4.57 15.146 4.57 4.19 15.469 4.189 3.34 0 10.957-1.289V412.09q-3.15.235-5.542.234-5.193 0-6.593-1.581m51.153-46.114q-9.13 0-15.102 4.043-5.97 4.043-9.394 10.635-3.424 6.593-3.424 16.025 0 13.595 7.58 22.266 7.58 8.673 20.224 8.672 13.052 0 20.925-8.76 7.873-8.758 7.873-21.885 0-13.3-7.581-22.148-7.58-8.847-21.101-8.848m7.538 46.26q-2.746 3.897-7.186 3.896-5.082 0-7.478-4.57c-2.396-4.57-2.395-8.065-2.395-15.059q0-11.425 2.512-15.264t7.478-3.838c4.966 0 5.773 1.388 7.39 4.16q2.424 4.161 2.424 15.82 0 10.96-2.745 14.855m70.269-46.26q-9.961.001-14.648 8.672v-28.242h-17.461v79.98h9.316q2.243-7.382 3.896-9.082 3.806 6.213 7.553 8.262t9.719 2.051q11.477 0 17.566-8.496 6.089-8.494 6.089-22.324 0-14.354-5.918-22.588-5.918-8.232-16.112-8.233m1.347 45.674q-2.813 3.839-7.148 3.838-3.633 0-6.24-3.164-2.607-3.163-2.607-9.375v-11.309q0-6.679 2.52-10.313 2.519-3.632 6.797-3.633 3.691 0 6.592 3.223 2.9 3.224 2.9 15.82-.002 11.077-2.814 14.913m91.02-11.924q0-17.635-8.174-25.693-8.173-8.056-19.6-8.057-12.657.001-20.713 8.672-8.057 8.673-8.057 22.793 0 9.493 4.014 16.289 4.013 6.798 10.195 10.342t15.029 3.545q20.273 0 26.895-20.508l-15.82-1.172q-1.758 9.316-10.488 9.316-4.688.001-8.057-3.223-3.37-3.222-3.369-9.551 0-1.17.059-2.754h38.086zm-27.129-22.324q9.198 0 10.02 12.188h-21.035q1.171-12.187 11.015-12.188m65.232 34.688q-1.4-1.582-1.4-6.27v-25.02h12.715V365.86h-12.715v-18.633l-15.059 1.172-1.406 17.461h-10.371v13.594h9.375v27.539q0 10.958 4.57 15.146 4.57 4.19 15.469 4.189 3.34 0 10.957-1.289V412.09q-3.15.235-5.542.234-5.192 0-6.593-1.581m33.813.497c-4.2 0-7.08 3.12-7.08 7.681-.12 4.199 2.88 7.439 6.96 7.439 4.44 0 7.2-3.24 7.2-7.439 0-4.561-2.76-7.681-7.08-7.681m95.115-46.611q-9.962.001-14.648 8.672v-28.242h-17.461v79.98h9.316q2.243-7.382 3.896-9.082 3.805 6.213 7.553 8.262 3.746 2.05 9.719 2.051 11.477 0 17.566-8.496 6.09-8.494 6.089-22.324 0-14.354-5.918-22.588-5.917-8.232-16.112-8.233m1.348 45.674q-2.813 3.839-7.148 3.838-3.635 0-6.24-3.164-2.608-3.163-2.607-9.375v-11.309q0-6.679 2.52-10.313 2.519-3.632 6.797-3.633 3.691 0 6.592 3.223 2.9 3.224 2.9 15.82-.002 11.077-2.814 14.913m91.02-11.924q0-17.635-8.174-25.693-8.173-8.056-19.6-8.057-12.658.001-20.713 8.672-8.057 8.673-8.057 22.793 0 9.493 4.014 16.289 4.012 6.798 10.196 10.342 6.18 3.545 15.029 3.545 20.272 0 26.895-20.508l-15.82-1.172q-1.759 9.316-10.488 9.316-4.69.001-8.057-3.223-3.37-3.222-3.369-9.551 0-1.17.059-2.754h38.085zm-27.129-22.324q9.197 0 10.02 12.188h-21.035q1.17-12.187 11.015-12.188m65.231 34.688q-1.401-1.582-1.4-6.27v-25.02h12.715V365.86h-12.715v-18.633l-15.059 1.172-1.406 17.461h-10.371v13.594h9.375v27.539q0 10.958 4.57 15.146 4.57 4.19 15.469 4.189 3.34 0 10.957-1.289V412.09q-3.15.235-5.542.234-5.193 0-6.593-1.581m63.1 14.297h17.461v-79.98h-17.461zm37.816-64.161h17.461v-17.461h-17.461zm0 64.161h17.461v-59.18h-17.461zm93.891-59.18h-17.018l-17.266 20.332q-1.112 1.349-2.751 3.574l-2.575 3.223v-47.93h-16.465v79.98h16.465v-15.002l10.271-11.806 12.355 26.808h19.269l-19.261-39.106zm66.762 32.519q0-17.635-8.174-25.693-8.173-8.056-19.6-8.057-12.657.001-20.713 8.672-8.057 8.673-8.057 22.793 0 9.493 4.014 16.289 4.014 6.798 10.195 10.342 6.182 3.545 15.029 3.545 20.273 0 26.895-20.508l-15.82-1.172q-1.758 9.316-10.488 9.316-4.688.001-8.057-3.223-3.369-3.222-3.369-9.551 0-1.17.059-2.754h38.086zm-27.129-22.324q9.2 0 10.02 12.188h-21.035q1.17-12.187 11.015-12.188m130.711 11.074q0-7.791-1.055-10.928-1.055-3.134-4.043-5.947c-2.988-2.813-4.766-3.281-8.32-4.219s-7.344-1.406-11.367-1.406q-10.078 0-18.047 4.219c-7.969 4.219-8.496 7.579-9.551 14.297l16.113 1.523q1.05-8.613 10.222-8.613 8.587 0 8.587 8.613v3.398q-17.49 1.29-24.102 3.955-6.61 2.667-9.594 7.354-2.984 4.689-2.984 10.254 0 7.618 5.119 12.129 5.118 4.513 13.426 4.512 5.617 0 10.033-2.08t8.863-8.408q0 5.743.82 9.258h16.934q-1.055-3.34-1.055-11.074v-26.837zm-17.461 14.942q0 5.625-3.124 9.463-3.126 3.839-7.739 3.838-3.562 0-5.49-2.256t-1.928-5.361q0-9.256 18.281-11.074zm105.515-37.442q-11.133.001-15.586 9.902v-8.672h-16.055v79.16h16.934v-26.543q4.277 7.793 14.297 7.793 9.903 0 16.084-7.939 6.182-7.938 6.182-23.584 0-14.706-6.123-22.412-6.123-7.704-15.733-7.705m.996 45.733q-2.813 3.662-6.387 3.662-2.87 0-5.332-1.904t-3.223-4.307q-.762-2.401-.762-8.672v-8.789q0-7.44 2.871-10.547 2.871-3.104 6.387-3.105 9.258 0 9.258 17.52.001 12.48-2.812 16.142m54.106-33.487V365.86h-15.996v59.18h16.934v-24.082q0-7.207 1.875-11.455 1.875-4.246 4.834-5.889 2.959-1.64 8.291-1.641v-17.227q-1.875-.176-3.164-.176-9.083.001-12.774 12.305m56.185-12.246q-9.13 0-15.102 4.043-5.97 4.043-9.394 10.635-3.425 6.593-3.425 16.025 0 13.595 7.58 22.266 7.58 8.673 20.224 8.672 13.052 0 20.926-8.76 7.872-8.758 7.872-21.885 0-13.3-7.58-22.148-7.579-8.847-21.101-8.848m7.539 46.26q-2.747 3.897-7.187 3.896-5.082 0-7.478-4.57c-2.396-4.57-2.396-8.065-2.396-15.059q0-11.425 2.513-15.264 2.511-3.838 7.478-3.838c4.967 0 5.773 1.388 7.391 4.16q2.424 4.161 2.424 15.82 0 10.96-2.745 14.855m53.979-9.756 5.801-56.074h-22.441l5.859 56.074zm-14.59 23.907h18.457v-18.457h-18.457z"/><path fill="#FFF" d="M107.201 66.28c-22.162 0-38.456 9.653-48.881 28.95V1H0v266.64h31.2q7.39-24.547 12.84-30.199 12.707 20.644 25.223 27.462c12.516 6.818 19.162 6.817 32.46 6.817q38.322 0 58.661-28.316Q180.719 215.089 180.72 169q-.001-47.844-19.747-75.281-19.75-27.44-53.772-27.439m4.594 152.325q-9.406 12.796-23.896 12.795c-8.1 0-15.052-3.514-20.864-10.549-5.813-7.031-8.715-17.448-8.715-31.256v-37.703c0-14.843 2.805-26.303 8.423-34.38q8.42-12.112 22.725-12.113c8.228 0 15.57 3.582 22.035 10.744 6.465 7.163 9.697 24.747 9.697 52.744 0 24.615-3.135 41.191-9.405 49.718m283.099-39.765q0-58.815-27.236-85.688C349.5 75.239 327.735 66.28 302.354 66.28c-28.117 0-51.123 9.638-69.019 28.905s-26.843 44.591-26.843 75.964q-.001 31.636 13.369 54.289 13.367 22.657 33.957 34.47c13.725 7.871 30.412 11.813 50.059 11.813q67.521.002 89.576-68.337l-52.801-3.903c-3.893 20.64-15.491 30.96-34.804 30.96q-15.556 0-26.737-10.71c-11.181-10.71-11.179-17.719-11.179-31.74q-.001-3.892.194-9.15h126.768zm-90.387-74.4q30.544.002 33.267 40.56h-69.84q3.892-40.558 36.573-40.56m217.537 119.72c-11.542 0-18.865-1.755-21.979-5.265-3.112-3.51-4.664-10.47-4.664-20.876V114.72h42.479V69.36h-42.479V7.2l-50.16 3.911-4.801 58.249h-34.56v45.36h31.2v91.792c0 24.349 5.081 41.179 15.251 50.486q15.25 13.962 51.622 13.962 11.144 0 36.566-4.31v-43.274q-10.504.786-18.475.784M1063.201 65.28c-22.162 0-38.456 9.653-48.881 28.95V0H956v266.64h31.2q7.39-24.547 12.84-30.199 12.707 20.644 25.223 27.462c12.516 6.818 19.162 6.817 32.46 6.817q38.322 0 58.661-28.316 20.336-28.315 20.336-74.404-.001-47.844-19.747-75.281-19.75-27.44-53.772-27.439m4.594 152.325q-9.406 12.796-23.896 12.795-12.148.002-20.864-10.549c-5.813-7.031-8.715-17.448-8.715-31.256v-37.703q-.002-22.264 8.423-34.38 8.42-12.112 22.725-12.113c8.228 0 15.57 3.582 22.035 10.744 6.465 7.163 9.697 24.747 9.697 52.744 0 24.615-3.135 41.191-9.405 49.718m284.099-37.765q0-58.815-27.236-85.688-27.234-26.872-65.303-26.873c-28.117 0-51.123 9.638-69.019 28.905s-26.843 44.591-26.843 75.964q-.001 31.636 13.369 54.289 13.366 22.657 33.957 34.47c13.725 7.871 30.412 11.813 50.059 11.813q67.521.002 89.576-68.337l-52.801-3.903c-3.893 20.64-15.491 30.96-34.804 30.96q-15.556 0-26.737-10.71c-11.181-10.71-11.179-17.719-11.179-31.74q-.001-3.892.194-9.15zm-90.387-74.4q30.544.002 33.267 40.56h-69.84q3.892-40.558 36.573-40.56m219.537 120.72c-11.542 0-18.865-1.755-21.979-5.265-3.112-3.51-4.664-10.47-4.664-20.876V116.72h42.479V71.36h-42.479V9.2l-50.16 3.911-4.801 58.249h-34.56v45.36h31.2v91.792c0 24.349 5.081 41.179 15.251 50.486q15.25 13.962 51.622 13.962 11.144 0 36.566-4.31v-43.274q-10.504.786-18.475.784M854.646 231.855q38.63-38.713 38.629-90.803c0-36.167-13.27-66.134-39.8-89.906Q813.669 15.492 747.859 15.49c-44.052 0-79.427 12.097-106.136 36.286-26.708 24.191-40.058 54.85-40.058 91.97q0 53.35 38.236 90.083 38.234 36.734 106.662 36.732c46.298.001 82.329-12.897 108.083-38.706m-172.869-20.629c-7.57-7.309-10.496-11.946-14.083-18.416-6.949-12.532-8.799-22.016-11.583-39.917-1.143-7.345-.303-21.246 1-27.333 1.396-6.521 3.027-13.555 5.333-20 4.459-12.462 8.082-18.141 17-27.667 10.543-11.261 21.933-18.562 36.833-23.167 10.309-3.186 32.474-5.133 44.667-2.917 16.5 3 24.883 5.406 32.5 9.25 5.925 2.989 11.614 6.594 18.833 13.667 11.508 11.275 12.546 12.528 18.834 27.167 3.568 8.308 6.825 27.892 6.333 39.333-1.333 31-6.333 45.667-22.667 66.333-7.527 9.525-17.669 15.752-27.666 20.334-8 3.666-22.667 8-40 7.666-28.066-.538-46-5.665-65.334-24.333"/><ellipse cx="707.209" cy="120.937" fill="#FED041" rx="16.509" ry="20.334" transform="rotate(-157.488 707.2 120.954)"/><ellipse cx="763.111" cy="95.31" fill="#FED041" rx="19.724" ry="17.41" transform="rotate(13.22 762.999 95.214)"/><ellipse cx="732.251" cy="177.45" fill="#FED041" rx="19.33" ry="17.654" transform="rotate(51.839 732.216 177.436)"/><ellipse cx="787.164" cy="154.722" fill="#FED041" rx="19.172" ry="17.412" transform="rotate(78.305 787.188 154.72)"/><ellipse cx="687.454" cy="167.728" fill="#FED041" rx="12.474" ry="13.993" transform="scale(-1)rotate(5.831 3293.268 -13497.51)"/><ellipse cx="772.445" cy="201.727" fill="#FED041" rx="12.893" ry="14.669" transform="rotate(-154.555 772.456 201.72)"/><ellipse cx="808.771" cy="115.239" fill="#FED041" rx="15.487" ry="11.107" transform="rotate(-118.561 808.769 115.244)"/><ellipse cx="800.398" cy="207.076" fill="#FED041" rx="6.128" ry="9.885" transform="scale(-1)rotate(35.073 655.344 -2532.99)"/><ellipse cx="718.812" cy="217.981" fill="#FED041" rx="11.747" ry="8.612" transform="scale(-1)rotate(29.862 817.518 -2695.661)"/><ellipse cx="687.785" cy="199.416" fill="#FED041" rx="9.446" ry="5.998" transform="rotate(-121.635 687.785 199.42)"/><ellipse cx="753.612" cy="226.477" fill="#FED041" rx="8.667" ry="7.25"/><ellipse cx="820.944" cy="174.56" fill="#FED041" rx="7.507" ry="13.201" transform="rotate(-155.672 820.936 174.564)"/><ellipse cx="829.223" cy="140.194" fill="#FED041" rx="5.773" ry="10" transform="scale(-1)rotate(-6.719 -2388.166 14126.076)"/><path fill="#FED041" d="M664.127 111.439c-1.857 5.912-.594 11.574 2.814 12.643s7.679-2.859 9.532-8.774c1.858-5.912.594-11.573-2.814-12.643-3.408-1.069-7.678 2.858-9.532 8.774"/><ellipse cx="777.707" cy="66.583" fill="#FED041" rx="5.166" ry="10.928" transform="rotate(-63.743 777.741 66.579)"/><path fill="#FED041" d="M814.188 85.551c-2.292-3.395-5.536-5.211-7.244-4.058s-1.236 4.843 1.057 8.237c2.289 3.394 5.534 5.208 7.242 4.057 1.709-1.153 1.237-4.84-1.055-8.236"/><ellipse cx="748.361" cy="135.477" fill="#FED041" rx="12.417" ry="13.75"/><path fill="#FED041" d="M659.011 151.393c-.523 5.328 1.649 9.902 4.847 10.214 3.197.313 6.215-3.755 6.732-9.085.524-5.328-1.649-9.901-4.846-10.214s-6.215 3.754-6.733 9.085"/><ellipse cx="720.278" cy="75.561" fill="#FED041" rx="15.426" ry="10.951" transform="scale(-1)rotate(-15.854 -542.535 5172.605)"/><ellipse cx="689.483" cy="81.172" fill="#FED041" rx="3.775" ry="7.452" transform="scale(-1)rotate(47.123 186.13 -1581.094)"/><ellipse cx="740.86" cy="58.726" fill="#FED041" rx="7.75" ry="4"/><path fill="#FED041" d="m774.694 69.56-.125 1.25-1 4.375-1.624 5.542.833.417 1.416-5.209.875-3.5.5-2.375zM733.945 69.727l.874.458 2.834 1.542 3.041 2.021 3.625 2.812 3.25 3 2.25 2.438-.812 1-2.437-2.521-2.167-2.083-3.459-2.834-3.75-2.562-2.687-1.563zM708.319 83.248l-.812 3.75-.688 5.312-.125 4.875v4.938l.938-.188.187-8.5.375-4.125.75-4.25.438-1.375zM722.507 111.56l3.25-1.875 4.187-2 4-1.875 4.188-1.812 3.875-1.375 2.625-1.063 1.75-.375.062 1.125-4.75 1.688-6.812 2.75-4.313 2-4.937 2.25-2.563 1.875zM770.444 111.185l1.563 2.75 2.125 4.125 2.437 5.625 1.875 4.5 1.875 4.313 1.5 4.187-.937.5-3.75-9.5-3.313-7.312-1.687-3.813-1.438-2.875-1.25-2.062zM811.694 129.248l-1.062 2.687-1.25 2.125-1.375 2.063-1.875 2.625-1.125 1.312-1.5 1.813-2.313 2.25.75.875 3.375-3.813 2.75-3.5 2.125-3.25 1.625-2.875.938-2.375zM781.944 95.248l4.813.062 4.437.5 3.875.688 3.5 1 3.875 1.5 2.25 1.25 1.063.875-1.875.062-1.75-1.187-3.063-1.125-2.875-.875-3.937-.875-3.813-.375-3.25-.188-3.25-.25zM803.278 161.644l3.667 2.5 3.667 2.583 2.916 1.917 2 1.25-.166.75-2.167-1.5-3.917-2.417-3.166-2.25-2.167-1.417-1.417-1zM789.861 173.06l.167 4.167.083 5v2.583l-.416 4.5-.667 3.667-.917 3.833-1.166 3.084-.917 1.75-.75.75-.25-.584 1.083-1.75 1.25-3.25.667-2.25.75-3.416.417-3.084.166-4.25.167-3.833-.25-3.5-.167-3.417zM773.195 165.06l-6.417 3.334-5.583 2.583-4.75 1.833-4.167 1.5-2.833.917.25.917 3.333-1.084 3.917-1.5 3.417-1.25 4.166-1.833 2.834-1.25 3.25-1.667 2.333-1.166.75-.584zM743.612 192.144l2.833 3.416 2.417 2.25 2.333 2.5 2.5 2.084 2.417 1.833 2.5 1.666 1.333.5.333-.75-1.25-.333-1.666-1.166-2.25-1.667-2.75-2.083-2.334-2.167-2.5-2.667-2.166-2.583-1.25-1.583zM726.195 194.06l-3.083 9.834-2.167 5.499.667.084 2.416-6.917 1.917-5.416 1.083-3zM695.945 177.227l3.084 1.333 3.166.917 3.25.583 3.584.5 3.5.25 2.166-.083.167.917-3.833.083-3.417-.417-2.75-.416-2.917-.667-3.5-1.083-2-1-1.416-.5zM682.029 155.644l.416-3.334 1.25-3.25 1.5-3.666 2.334-3.917 1.916-2.583 2.084-2.75 1.916-1.834.584.584-3.5 3.916-1.417 2.25-1.75 2.667-1.667 2.917-1.083 2.416-.917 2.5-.333 1.917v1.833zM714.612 136.894l1.25 3.75 1.833 5.083 1.833 4.833 1.667 3.667 1.583 3.667 1.167 2.416-.667.667-2.25-4.75-2.833-6.583-2-5-1.416-4.167-1.084-3.25zM676.757 113.435l9.75 1.563 5.25.812.187.875-8.812-1.25-7.688-1.125z"/></svg>