<svg xmlns="http://www.w3.org/2000/svg" width="1920" height="350" viewBox="0 0 1920 350">
  <defs>
    <style>
      .cls-1 {
        fill: #fff;
      }

      .cls-1, .cls-2 {
        fill-rule: evenodd;
      }

      .cls-2 {
        fill: #e11419;
      }
    </style>
  </defs>
  <path id="IMG" class="cls-1" d="M437.266,294.663c-2.786,0-4.877-.691-6.271-2.759a8.412,8.412,0,0,1-2.785-6.22V70.152c0-2.765.7-4.838,2.785-6.215s4.18-2.765,6.271-2.765h107.98c15.325,0,27.865,2.073,38.316,6.215s18.81,9.671,24.383,15.891a55.375,55.375,0,0,1,13.236,22.106,77.6,77.6,0,0,1,4.178,24.865,60,60,0,0,1-2.089,16.582c-1.393,4.839-3.482,8.98-4.877,12.436a43.26,43.26,0,0,1-6.268,8.288c-2.091,2.074-4.18,3.456-4.878,4.838,9.056,6.215,14.63,13.121,18.112,20.724s4.878,17.268,4.878,28.321a90.543,90.543,0,0,1-4.18,26.944,60.54,60.54,0,0,1-13.236,23.483,63.247,63.247,0,0,1-24.383,16.582c-9.753,4.147-22.293,6.215-36.225,6.215H437.266ZM563.358,132.324c0-5.524-1.392-10.362-4.876-13.813s-8.36-4.838-15.325-4.838H490.908v38h52.249c6.965,0,11.843-1.383,15.325-4.839S563.358,137.853,563.358,132.324ZM490.212,243.545h55.73a23.646,23.646,0,0,0,16.024-5.524c4.179-3.455,6.27-8.985,6.27-14.508A19.808,19.808,0,0,0,561.966,209c-4.18-4.142-9.753-5.524-16.024-5.524h-55.73v40.065Zm368.525-2.073c2.786,0,4.877.691,6.269,2.764a8.406,8.406,0,0,1,2.787,6.215v35.233c0,2.764-.7,4.838-2.787,6.22a8.55,8.55,0,0,1-6.269,2.759H699.205c-2.787,0-4.876-.691-6.269-2.759a8.41,8.41,0,0,1-2.789-6.22V70.152c0-2.765.7-4.838,2.789-6.215a8.537,8.537,0,0,1,6.269-2.765H855.95c2.787,0,4.878.691,6.271,2.765a8.394,8.394,0,0,1,2.785,6.215v35.233c0,2.765-.7,4.833-2.785,6.215s-4.18,2.764-6.271,2.764H752.15v35.924h96.138c2.786,0,4.875.691,6.27,2.759a8.41,8.41,0,0,1,2.785,6.221V194.5c0,2.76-.695,4.833-2.785,6.215a8.542,8.542,0,0,1-6.27,2.765H752.15v37.3H858.737v0.691Zm242.433-180.3c2.79,0,4.88.691,6.27,2.765a8.4,8.4,0,0,1,2.79,6.215v35.233c0,2.765-.7,4.833-2.79,6.215a8.543,8.543,0,0,1-6.27,2.764h-59.21v171.32c0,2.764-.7,4.838-2.79,6.22a8.555,8.555,0,0,1-6.27,2.759H989.01c-2.787,0-4.876-.691-6.271-2.759a8.413,8.413,0,0,1-2.786-6.22V115.056H920.738c-2.787,0-4.876-.692-6.269-2.765s-2.787-4.141-2.787-6.215V70.152c0-2.765.7-4.838,2.787-6.215a8.543,8.543,0,0,1,6.269-2.765H1101.17Zm172.42,0a17.186,17.186,0,0,1,10.45,3.456,13.106,13.106,0,0,1,4.88,7.6l73.15,210a27.578,27.578,0,0,1,1.39,4.838,6.228,6.228,0,0,1-2.09,4.838,7.563,7.563,0,0,1-4.88,2.068H1314c-4.18,0-7.66-.691-9.75-2.759a12.259,12.259,0,0,1-3.49-5.529l-9.75-27.63h-89.17l-9.75,27.63a12.259,12.259,0,0,1-3.49,5.529c-2.09,2.068-4.87,2.759-9.75,2.759h-42.5a6.343,6.343,0,0,1-4.87-2.068,7.453,7.453,0,0,1-2.09-4.838c0-1.382.7-2.765,1.39-4.838l73.15-210c0.7-2.765,2.79-4.838,4.88-7.6s5.57-3.456,10.45-3.456h54.33ZM1219.26,206.93h54.33l-27.17-80.13-27.16,80.13h0Zm291.89,29.018a35.109,35.109,0,0,1-4.88-5.529l-31.34-55.266V285.684c0,2.764-.7,4.838-2.79,6.22a8.555,8.555,0,0,1-6.27,2.759h-43.89c-2.79,0-4.88-.691-6.27-2.759a8.415,8.415,0,0,1-2.79-6.22V70.152c0-2.765.7-4.838,2.79-6.215a8.542,8.542,0,0,1,6.27-2.765h39.01c4.18,0,7.66,1.382,9.75,3.456,2.1,2.759,3.49,4.141,4.19,5.524l54.33,92.566,54.34-92.566c0.7-1.382,2.09-2.765,4.18-5.524s5.57-3.456,9.76-3.456h39.01c2.78,0,4.87.691,6.27,2.765a8.383,8.383,0,0,1,2.78,6.215V285.684c0,2.764-.69,4.838-2.78,6.22a8.555,8.555,0,0,1-6.27,2.759h-42.5c-2.79,0-4.88-.691-6.27-2.759a8.4,8.4,0,0,1-2.78-6.22V175.845l-31.35,55.265a35.064,35.064,0,0,1-4.88,5.529,10.547,10.547,0,0,1-7.66,2.759h-21.6C1516.03,238.707,1513.24,238.021,1511.15,235.948Zm197.15-87.733a100.682,100.682,0,0,1,8.36-35.233,94.917,94.917,0,0,1,20.2-29.012c9.06-8.288,19.51-14.509,32.05-19.341s27.17-6.912,43.89-6.912c16.02,0,30.65,2.074,43.89,6.912,12.54,4.833,23.68,11.053,32.74,19.341a75.633,75.633,0,0,1,20.2,29.012,100.244,100.244,0,0,1,8.36,35.233c0.7,9.67.7,19.341,0.7,29.7s0,20.033-.7,29.012a100.244,100.244,0,0,1-8.36,35.233,94.568,94.568,0,0,1-20.2,29.012c-8.36,8.294-19.51,14.509-32.74,19.347-12.54,4.833-27.17,6.906-43.89,6.906s-31.35-2.073-43.89-6.906-23.69-11.053-32.05-19.347a75.738,75.738,0,0,1-20.2-29.012,100.682,100.682,0,0,1-8.36-35.233c-0.7-8.979-.7-18.65-0.7-29.012C1707.6,168.247,1708.3,157.885,1708.3,148.215Zm147.69,58.024c0-4.141.7-8.288,0.7-13.121V163.409c0-4.832-.7-8.979-0.7-13.121-0.7-5.529-1.39-10.362-3.48-15.2a39.233,39.233,0,0,0-8.36-12.435,36,36,0,0,0-13.24-8.289c-4.88-2.073-11.15-2.764-18.11-2.764s-13.24.691-18.12,2.764-9.75,4.839-13.23,8.289a39.233,39.233,0,0,0-8.36,12.435c-2.09,4.838-2.79,9.671-3.48,15.2-0.7,3.451-.7,8.289-0.7,13.121v29.709c0,4.833.7,9.671,0.7,13.121a43.561,43.561,0,0,0,11.84,27.635c6.97,7.6,17.42,11.053,31.35,11.053s24.38-3.455,30.65-11.053a40.983,40.983,0,0,0,12.54-27.635h0Z"/>
  <path id="IMG-2" data-name="IMG" class="cls-2" d="M327.391,220.057l-124.7,116.059c-5.574,4.833-11.843,8.98-18.114,11.048a52.327,52.327,0,0,1-18.111,2.765c-13.934-.692-26.472-6.215-35.53-15.886L13.9,210.386A46.13,46.13,0,0,1-.035,174.462c0.7-13.812,6.271-26.247,16.024-35.227l124.7-116.059A47.918,47.918,0,0,1,176.915,9.363c13.933,0.691,26.472,6.215,35.529,15.886L329.48,148.215A50.787,50.787,0,0,1,327.391,220.057ZM86.614,158.337a25.2,25.2,0,0,0-28.9,2.03c-7.567,6.77-11.007,18.286-7.567,27.766,4.128,10.83,15.824,17.6,27.52,16.25a24.8,24.8,0,0,0,20.642-18.96A24,24,0,0,0,86.614,158.337Zm110.5-83.347c-1.393-10.362-9.753-18.656-19.506-20.729a25.462,25.462,0,0,0-25.775,40.762c6.965,7.6,18.81,11.053,28.563,7.6A26.464,26.464,0,0,0,197.117,74.99Zm0,100.855c-1.393-10.362-9.753-18.651-19.506-20.724a25.46,25.46,0,0,0-25.775,40.756c6.965,7.6,18.81,11.053,28.563,7.6A26.467,26.467,0,0,0,197.117,175.845Zm0,98.1c-1.393-10.362-9.753-18.651-19.506-20.724a25.46,25.46,0,0,0-25.775,40.756c6.965,7.6,18.81,11.053,28.563,7.6A26.467,26.467,0,0,0,197.117,273.94Zm87.65-115.6a25.2,25.2,0,0,0-28.9,2.03c-7.569,6.77-11.009,18.286-7.569,27.766,4.128,10.83,15.824,17.6,27.522,16.25a24.8,24.8,0,0,0,20.64-18.96A24,24,0,0,0,284.767,158.337Z"/>
</svg>
