<?xml version="1.0" encoding="UTF-8"?><svg id="Layer_2" xmlns="http://www.w3.org/2000/svg" xmlns:xlink="http://www.w3.org/1999/xlink" viewBox="0 0 681.13 195.68"><defs><style>.cls-1{fill:url(#linear-gradient);}.cls-1,.cls-2,.cls-3,.cls-4,.cls-5,.cls-6,.cls-7,.cls-8,.cls-9{stroke-width:0px;}.cls-2{fill:url(#linear-gradient-4);}.cls-3{fill:url(#linear-gradient-2);}.cls-4{fill:url(#linear-gradient-3);}.cls-5{fill:url(#linear-gradient-8);}.cls-6{fill:url(#linear-gradient-7);}.cls-7{fill:url(#linear-gradient-5);}.cls-8{fill:url(#linear-gradient-6);}</style><linearGradient id="linear-gradient" x1="342.89" y1="16" x2="342.89" y2="179.68" gradientUnits="userSpaceOnUse"><stop offset="0" stop-color="#ffdb3b"/><stop offset=".5" stop-color="#ff9e16"/></linearGradient><linearGradient id="linear-gradient-2" x1="216.49" y1="94.62" x2="216.49" y2="172.8" gradientUnits="userSpaceOnUse"><stop offset="0" stop-color="#00cadf"/><stop offset="1" stop-color="#285cce"/></linearGradient><linearGradient id="linear-gradient-3" x1="96.45" y1="106.22" x2="96.45" y2="148.48" xlink:href="#linear-gradient-2"/><linearGradient id="linear-gradient-4" x1="617.21" y1="105.15" x2="617.21" y2="148.48" xlink:href="#linear-gradient-2"/><linearGradient id="linear-gradient-5" x1="354.65" y1="94.24" x2="354.65" y2="150.08" xlink:href="#linear-gradient-2"/><linearGradient id="linear-gradient-6" x1="435.77" y1="95.09" x2="435.77" y2="179.68" xlink:href="#linear-gradient-2"/><linearGradient id="linear-gradient-7" x1="523.32" y1="98.25" x2="523.32" y2="148.48" xlink:href="#linear-gradient-2"/><linearGradient id="linear-gradient-8" x1="38.84" y1="110.37" x2="38.84" y2="145.6" xlink:href="#linear-gradient-2"/></defs><g id="Layer_1-2"><path class="cls-9" d="M375.78,195.68l1.57-17.43c.35-3.88,1.22-10.56,2.44-18.78-7.82,4.25-17.03,6.61-27.15,6.61-11.88,0-22.67-3.86-31.13-11.02-6.88,20.64-23.05,33.74-43.91,33.74-18.61,0-32.37-10.9-38.33-29.06-6.94,3.13-14.26,4.74-21.83,4.74-12.08,0-22.88-4.11-30.95-11.27-10.02,7.43-21.15,11.27-32.89,11.27-6.89,0-13.25-1.25-18.9-3.57l-56.66,4.15-5.26-6.6c-.73-.91-4.81-6.22-9.6-16.3-1.28,3.45-2.53,6.64-3.75,9.58l-4.1,9.86H0l5.17-20c2.9-11.21,5.47-22.12,7.67-32.55l-7.88-7.88s14.4-27.45,14.99-31.07L.7,35.88l8.76-8.58C27.68,9.44,51.63,0,78.74,0c39.53,0,66.08,22.12,66.08,55.04,0,2.45-.15,4.88-.46,7.29,5.87-2.17,12.21-3.29,18.85-3.29,12.67,0,23.08,4.67,29.46,12.43,8.78-7.53,20.27-12.43,34.38-12.43,7.74,0,14.63,1.74,20.28,4.86l.28-.03c7.22-26.51,15.03-46.66,15.41-47.61l3.97-10.19h68.06l-.29.6c8.85-4.34,19.47-6.68,31.48-6.68,22.36,0,36.02,8.83,43.53,16.25,9.9,9.76,15.35,22.97,15.35,37.19,0,2.76-.22,5.62-.62,8.48h18.63c4.76-1.89,9.84-2.88,15.12-2.88,17.65-.64,23.9,2.88,23.9,2.88-2.19-4.44-3.42-9.49-3.42-14.88,0-18.88,15.15-34.24,33.76-34.24s32.16,14.1,32.16,32.8c0,5.54-1.47,11.22-4.23,16.32h31.61c19.33-11.36,32.93-3.09,32.93-3.09l46.57-7.97v18.26c0,1.56-.06,3.17-.19,4.85,18.83,13.46,29.79,31.09,29.79,48.59,0,11.18-4.16,21.53-11.72,29.15-5.78,5.83-16.29,12.77-33.56,12.77-9.71,0-18.64-2.22-26.41-6.5-6.69,4.36-13.89,6.5-21.75,6.5-8.75,0-16.46-2.71-22.34-7.4l-.45,4.52h-47.75c-4.49,1.92-9.15,2.88-13.95,2.88-12.13,0-22.24-5.02-28.63-14.18-9.34,9.2-20.89,14.18-33.29,14.18-.47,0-.94,0-1.4-.02-.41,5.52-.75,10.89-1.02,16.06l-.8,15.16h-62.29Z"/><path class="cls-1" d="M20.66,145.6c3.68-14.24,7.04-28.8,9.76-42.72-1.92-1.12-3.52-2.4-4.96-3.84,0,0,8.48-19.96,12.79-37.69,1.23-5.03,1.73-16.62,2.09-19.27-5.12,2.88-9.44,6.24-12.48,9.44l-7.2-12.8c16.16-15.84,36.96-22.72,58.08-22.72,28.8,0,50.08,13.6,50.08,39.04,0,19.04-13.12,39.52-37.28,48.8,13.12,21.6,33.12,41.76,33.12,41.76l-39.36,2.88s-10.08-12.64-17.12-39.68c-1.92.16-3.84.16-5.76.16h-4.96c-4.16,13.44-8.48,26.24-12.8,36.64h-24ZM151.54,120.8c1.6,5.76,5.76,9.12,12.16,9.12,12.96,0,23.04-14.56,27.36-23.2l8.64,4.32c-4.96,9.76-19.68,37.44-46.08,37.44-16.16,0-29.76-10.4-29.76-30.56,0-17.44,12-42.88,39.36-42.88,10.72,0,20.32,4.96,20.32,16.32,0,14.72-14.08,25.76-32,29.44ZM150.74,110.4c7.2-2.08,15.84-7.36,15.84-15.68,0-2.4-1.28-4.32-3.68-4.32-4.16,0-11.36,6.24-12.16,20ZM215.37,120.8c1.6,5.76,5.76,9.12,12.16,9.12,12.96,0,23.04-14.56,27.36-23.2l8.64,4.32c-4.96,9.76-19.68,37.44-46.08,37.44-16.16,0-29.76-10.4-29.76-30.56,0-17.44,12-42.88,39.36-42.88,10.72,0,20.32,4.96,20.32,16.32,0,14.72-14.08,25.76-32,29.44ZM214.57,110.4c7.2-2.08,15.84-7.36,15.84-15.68,0-2.4-1.28-4.32-3.68-4.32-4.16,0-11.36,6.24-12.16,20ZM307.05,91.36h-17.76c12,8.32,19.84,22.72,19.84,40.16,0,26.08-13.6,41.28-31.52,41.28s-25.6-16.32-25.6-35.2c0-14.24,2.08-30.08,5.28-45.28-2.4-.48-5.76-.8-7.52-.96l3.36-12,7.2-.8c7.68-31.04,17.6-56.48,17.6-56.48h31.68s-12,24.96-21.28,53.12l24-2.88-5.28,19.04ZM280.17,104.48c-1.6,8.16-2.56,15.84-2.56,22.56,0,10.56.64,18.56,5.28,18.56,4.32,0,7.68-5.28,7.68-13.44,0-12.8-4.48-21.6-10.4-27.68ZM359.37,54.72c0,20.32,30.72,29.12,30.72,58.72,0,20.16-14.08,36.64-37.44,36.64-21.44,0-33.44-17.28-33.44-38.4l17.6-2.08c.64,9.6,3.68,19.52,14.08,19.52,6.72,0,9.28-4.96,9.28-10.08,0-17.12-38.24-31.36-38.24-63.52,0-23.2,14.72-39.52,44.32-39.52s42.88,18.56,42.88,37.44c0,9.6-3.52,19.84-7.2,24.96l-25.44-7.84c1.44-3.52,3.04-7.52,3.04-12.48,0-8.64-4.96-14.24-11.2-14.24-5.6,0-8.96,4.8-8.96,10.88ZM435.21,77.92c-1.12,3.68-2.4,9.28-3.52,16.16,6.4-12.48,15.84-19.04,26.56-19.04,9.6,0,20,6.88,20,26.4,0,23.2-15.36,47.04-36.96,47.04-7.52,0-12.48-1.92-15.68-5.12-1.12,11.84-2.08,24.16-2.72,36.32h-29.6c1.44-16,12.96-85.6,18.72-101.76h23.2ZM431.05,114.4s-4.48,14.56,7.2,14.56c6.72,0,13.44-10.56,13.44-22.88,0-4.64-2.4-8.32-5.44-8.32-4.96,0-11.2,5.44-15.2,16.64ZM539.21,111.04c-4.96,9.76-17.6,37.44-36,37.44-15.84,0-20.16-12.96-20.16-25.92,0-21.6,7.2-44.64,7.2-44.64h27.36s-8.64,23.04-8.64,40.32c0,4.32,1.44,8.64,4.96,8.64,5.76,0,12.32-11.52,16.64-20.16l8.64,4.32ZM528.65,45.6c0,8.16-6.4,18.08-17.76,18.08-9.76,0-16.16-8-16.16-16.64,0-9.76,7.68-18.24,17.76-18.24,8.96,0,16.16,6.56,16.16,16.8ZM561.29,77.92s-1.28,3.04-4.64,18.56h.64c7.36-12.16,17.28-21.44,29.92-21.44,9.28,0,16.8,4.96,16.8,16.48,0,12.64-9.12,24.16-9.12,30.88,0,3.2,2.08,4.48,4.16,4.48,6.08,0,12.96-11.52,17.28-20.16l8.64,4.32c-14.56,30.24-25.92,37.44-37.28,37.44-10.72,0-18.4-6.4-18.4-17.44s6.24-21.6,6.24-28.8c0-3.2-1.44-4.48-3.36-4.48-8,0-19.04,20.32-21.76,47.84h-24.8c3.04-39.36,10.72-67.68,10.72-67.68h24.96ZM635.53,69.12c0,3.68-.48,8-1.44,12.8,17.44,9.92,31.04,24.96,31.04,40.64,0,13.12-9.12,25.92-29.28,25.92-15.84,0-26.4-8-32.16-17.76l11.52-13.28c3.52,5.44,7.68,8.8,12,8.8,2.88,0,5.44-1.6,5.44-6.4s-2.72-8.96-5.92-12.96c-.8,1.92-1.6,3.84-2.4,5.44l-8.96-3.68c3.2-7.52,4-14.56,4-22.72,0-5.44-.48-9.76-1.92-14.4l18.08-2.4Z"/><path class="cls-3" d="M293.42,94.62c-12.39.21-24.65.5-36.77.88-.79,3.95-1.49,7.92-2.1,11.89-4.49,8.7-14.39,22.53-27.02,22.53-6.4,0-10.56-3.36-12.16-9.12,16.06-3.3,29.03-12.51,31.55-24.99-5.58.19-11.13.4-16.65.63-1.09,7.33-9.01,12.02-15.7,13.96.34-5.78,1.81-10.21,3.7-13.43-8.8.41-17.51.86-26.12,1.35-2.06,4.48-3.37,9.15-4.01,13.58-5.17,8.28-13.84,18.02-24.45,18.02-6.4,0-10.56-3.36-12.16-9.12,14.71-3.02,26.82-11,30.7-21.9-5.69.35-11.33.72-16.93,1.1-2.66,5.31-9.03,8.8-14.56,10.4.22-3.71.91-6.85,1.87-9.49-8.84.66-17.56,1.36-26.16,2.11-1.74,5.11-2.59,10.29-2.59,14.9,0,20.16,13.6,30.56,29.76,30.56s27.6-10.08,35.45-20.22c3.84,13.36,15.27,20.22,28.39,20.22,15.5,0,26.97-9.55,34.81-19.4-.15,2.89-.25,5.74-.25,8.52,0,18.88,7.36,35.2,25.6,35.2s31.52-15.2,31.52-41.28c0-15.35-6.07-28.33-15.71-36.9ZM282.89,145.6c-4.64,0-5.28-8-5.28-18.56,0-6.72.96-14.4,2.56-22.56,5.92,6.08,10.4,14.88,10.4,27.68,0,8.16-3.36,13.44-7.68,13.44Z"/><path class="cls-4" d="M68.23,108.99c7.04,26.91,17.07,39.49,17.07,39.49l39.36-2.88s-18.55-18.7-31.64-39.38c-8.41.88-16.68,1.8-24.79,2.77Z"/><path class="cls-2" d="M664.43,116.38c-11.1-1.74-22.59-3.39-34.45-4.96,1.59,2.63,2.67,5.4,2.67,8.42,0,4.8-2.56,6.4-5.44,6.4s-5.56-1.43-8.11-3.94c1.9-3.35,3.85-7.08,5.87-11.26h-.03c.04-.09.07-.18.11-.26-3.36-.43-6.75-.85-10.16-1.27-4.31,8.13-10.4,17.37-15.84,17.37-2.08,0-4.16-1.28-4.16-4.48,0-3.65,2.69-8.73,5.15-14.63-8.12-.92-16.39-1.79-24.79-2.62-1.21,6.96-5.96,16.12-5.96,25.89,0,11.04,7.68,17.44,18.4,17.44,6.78,0,13.57-2.57,21.03-11.08,6.15,6.48,15.12,11.08,27.13,11.08,20.16,0,29.28-12.8,29.28-25.92,0-2.08-.24-4.14-.7-6.18Z"/><path class="cls-7" d="M342.36,94.24c9.1,9.12,17.81,16.64,17.81,24.81,0,5.12-2.56,10.08-9.28,10.08-10.4,0-13.44-9.92-14.08-19.52l-17.6,2.08c0,21.12,12,38.4,33.44,38.4,23.36,0,37.44-16.48,37.44-36.64,0-7.41-1.92-13.51-4.81-18.82-14.15-.24-28.47-.37-42.92-.38Z"/><path class="cls-8" d="M407.57,95.09c-5.88,26.89-13.15,72.1-14.28,84.59h29.6c.64-12.16,1.6-24.48,2.72-36.32,3.2,3.2,8.16,5.12,15.68,5.12,21.6,0,36.96-23.84,36.96-47.04,0-1.25-.04-2.45-.13-3.59-22.9-1.22-46.47-2.15-70.56-2.76ZM438.25,128.96c-11.67,0-7.2-14.56-7.2-14.56,4-11.2,10.24-16.64,15.2-16.64,3.04,0,5.44,3.68,5.44,8.32,0,12.32-6.72,22.88-13.44,22.88Z"/><path class="cls-6" d="M530.26,107.34c-4.32,8.56-10.71,19.55-16.33,19.55-3.52,0-4.96-4.32-4.96-8.64,0-5.84.99-12.34,2.3-18.39-8.5-.58-17.11-1.11-25.81-1.6-1.32,7.37-2.4,15.95-2.4,24.31,0,12.96,4.32,25.92,20.16,25.92,9.49,0,17.43-7.36,23.6-15.82-.45,4.16-.85,8.48-1.2,12.94h24.8c1.81-18.36,7.34-33.51,13.19-41.57-10.56-.98-21.33-1.89-32.28-2.74-.35,1.91-.7,3.93-1.05,6.04Z"/><path class="cls-5" d="M20.66,145.6h24c4.17-10.04,8.34-22.31,12.36-35.24-9.9,1.25-19.55,2.56-28.95,3.93-2.22,10.36-4.73,20.91-7.42,31.3Z"/><path class="cls-9" d="M49.38,27.1c-3.45.44-4.37,2.15-2.51,4.52.39.47,1.2,1.54,1.9,2.37.66.83,1.2,1.58,1.2,1.7,0,.08-.95.7-2.13,1.35-6.06,3.27-12.53,8.14-16.3,12.17-6.18,6.67-9.3,13.26-9.68,20.42-.53,9.51,4.51,18.45,14.35,25.36,2.29,1.63,3.39,2.19,3.97,2.04.63-.15,1.03-.93,1.04-2.03.01-1.17.46-2.93,1.06-4.02.68-1.29,1.67-2.29,4.07-4.11,3.39-2.55,5.22-4.61,6.57-7.37.64-1.33.73-2.3.18-2.82-.5-.51-1.21-.48-3.25.32-3.85,1.49-7.15,2-11.34,1.81-3.17-.15-5.01-.56-7.34-1.72-2.1-1.04-3.31-2.15-4.07-3.68-1.69-3.5.35-7.71,5.36-10.99.87-.54,2.09-1.23,2.72-1.54,1.06-.46,1.18-.5,1.61-.22.35.2.5.44.54.91,0,.35,0,.7-.09.82s-.95.62-1.89,1.16c-3.9,2.08-6.12,4.56-6.34,7.06l-.09,1.1.79-.66c2.49-2.09,6.77-3.22,13.04-3.39,3.88-.12,6.42.18,10.72,1.2,3.24.78,5.55,1.23,7.5,1.52l.82.13-.84,1.71c-.48.94-.88,2.07-.96,2.5-.26,2.31,2.12,3.15,5.62,1.94,2.95-.99,7.16-3.14,10.9-5.49,1.42-.93,1.85-1.12,3.07-1.3,9.92-1.66,18.3-5.1,24.85-10.29,3.71-2.94,7.28-7.05,9.15-10.48l.88-1.68-1.24-1.5c-6.81-8.17-17.18-13.33-29.73-14.75-2.86-.34-8.88-.48-11.9-.31-1.76.1-1.84.1-3.01-.46-2.61-1.2-6.44-2.34-10.03-2.92-2.27-.38-7.59-.59-9.16-.37ZM70.34,37.77c.39.32.43.36.31,4-.15,7.44.68,13.87,2.33,17.45.69,1.53,1.93,2.84,3.33,3.56,1.44.72,1.79,1.19,1.43,1.89-.4.86-.99.89-2.39.21-1.48-.72-3.34-2.54-4.11-3.92-1.19-2.2-2.28-6.76-2.7-11.5-.21-2.31-.21-10.46,0-11.2.12-.43.67-.85,1.18-.85.12,0,.39.12.62.36ZM89.64,39.49c1.58.92,2.61,3.43,2.36,5.39-.49,4-5.5,6.29-8.65,3.92-2.92-2.22-3.26-6.61-.67-8.92,1.83-1.57,4.78-1.77,6.96-.38Z"/></g></svg>